<svg xmlns="http://www.w3.org/2000/svg" width="14.622" height="15.565" viewBox="0 0 14.622 15.565">
  <g id="公告" transform="translate(-26.347 -182)">
    <path id="路径_4637" stroke="none" data-name="路径 4637" d="M49.673,22.169H37.593A1.27,1.27,0,0,1,36.322,20.9V12.017a1.27,1.27,0,0,1,1.271-1.269h1.271l-.019-.019L42.7,7.4a.95.95,0,0,1,.889-.769l.028-.024.019.019c.01,0,.02,0,.031,0l0,0,0,0a.95.95,0,0,1,.9.776L48.4,10.714l-.034.034h1.305a1.27,1.27,0,0,1,1.272,1.269V20.9a1.27,1.27,0,0,1-1.271,1.269ZM44.2,8.334a.939.939,0,0,1-1.139,0l-2.789,2.412H47L44.2,8.334Zm5.787,3.683a.318.318,0,0,0-.318-.317H37.593a.318.318,0,0,0-.318.317V20.9a.318.318,0,0,0,.318.317H49.673a.318.318,0,0,0,.318-.317V12.017Zm-2.225,6.27H39.5a.318.318,0,0,1-.318-.317v-.317a.318.318,0,0,1,.318-.317h8.265a.318.318,0,0,1,.318.317v.317A.318.318,0,0,1,47.765,18.287Zm-3.814-2.7H39.5a.318.318,0,0,1-.318-.317v-.317a.318.318,0,0,1,.318-.317h4.45a.318.318,0,0,1,.318.317v.317A.318.318,0,0,1,43.951,15.582Z" transform="translate(-9.975 175.396)" opacity="0.65"/>
  </g>
</svg>
