<?xml version="1.0" standalone="no"?><!DOCTYPE svg PUBLIC "-//W3C//DTD SVG 1.1//EN" "http://www.w3.org/Graphics/SVG/1.1/DTD/svg11.dtd"><svg t="1525499354423" class="icon" style="" viewBox="0 0 1024 1024" version="1.1" xmlns="http://www.w3.org/2000/svg" p-id="4001" xmlns:xlink="http://www.w3.org/1999/xlink" width="200" height="200"><defs><style type="text/css"></style></defs><path d="M512 0C230.4 0 0 230.4 0 512s230.4 512 512 512 512-230.4 512-512-230.4-512-512-512z m0 960c-249.6 0-448-198.4-448-448s198.4-448 448-448 448 198.4 448 448-198.4 448-448 448z" fill="" p-id="4002"></path><path d="M556.8 518.4V339.2c0-19.2-12.8-32-32-32s-32 12.8-32 32v192c0 6.4 0 19.2 6.4 19.2l198.4 204.8c6.4 6.4 12.8 12.8 25.6 12.8 6.4 0 12.8 0 19.2-6.4 12.8-12.8 12.8-32 0-44.8L556.8 518.4z" fill="" p-id="4003"></path></svg>