<svg t="1662618972710" class="icon" viewBox="0 0 1024 1024" version="1.1" xmlns="http://www.w3.org/2000/svg" p-id="4319" width="200" height="200"><path d="M870.4 211.2h-76.8c12.8-51.2-12.8-102.4-57.6-128-57.6-38.4-128-19.2-160 38.4l-51.2 89.6h-19.2l-51.2-89.6C422.4 64 345.6 44.8 288 83.2c-44.8 25.6-70.4 76.8-57.6 128H153.6c-51.2 0-89.6 38.4-89.6 89.6v121.6c0 38.4 25.6 70.4 57.6 83.2v364.8c0 51.2 38.4 89.6 89.6 89.6h595.2c51.2 0 89.6-38.4 89.6-89.6V499.2c38.4-6.4 64-44.8 64-83.2V300.8c0-51.2-38.4-89.6-89.6-89.6zM320 134.4c32-19.2 64-6.4 83.2 19.2l32 57.6H294.4c-12.8-32 0-64 25.6-76.8zM480 896H211.2c-19.2 0-32-12.8-32-32V505.6h294.4V896z m0-448H153.6c-19.2 0-32-12.8-32-32V300.8c0-19.2 12.8-32 32-32h326.4V448z m147.2-294.4c12.8-25.6 51.2-38.4 83.2-19.2 25.6 12.8 38.4 51.2 25.6 76.8H595.2l32-57.6z m211.2 710.4c0 19.2-12.8 32-32 32H544V505.6h294.4v358.4z m64-448c0 19.2-12.8 32-32 32H544V268.8h326.4c19.2 0 32 12.8 32 32v115.2z" p-id="4320"></path></svg>