<?xml version="1.0" standalone="no"?><!DOCTYPE svg PUBLIC "-//W3C//DTD SVG 1.1//EN" "http://www.w3.org/Graphics/SVG/1.1/DTD/svg11.dtd"><svg t="1662616012391" class="icon" viewBox="0 0 1024 1024" version="1.1" xmlns="http://www.w3.org/2000/svg" p-id="4014" xmlns:xlink="http://www.w3.org/1999/xlink" width="200" height="200"><path d="M528.768 329.408a183.744 183.744 0 1 0 0 367.488 183.744 183.744 0 0 0 0-367.488z m-118.912 183.68a118.912 118.912 0 1 1 237.76 0 118.912 118.912 0 0 1-237.76 0z" p-id="4015"></path><path d="M442.048 81.664a32.448 32.448 0 0 0-37.568-16.512 464.064 464.064 0 0 0-192.128 107.52 32.448 32.448 0 0 0-7.04 38.144 97.28 97.28 0 0 1-87.296 140.224h-1.28a32.448 32.448 0 0 0-31.424 22.656 466.688 466.688 0 0 0-11.84 233.024 32.448 32.448 0 0 0 34.88 25.792 97.28 97.28 0 0 1 84.032 159.488 32.448 32.448 0 0 0 1.472 43.392 464.64 464.64 0 0 0 202.112 123.264 32.448 32.448 0 0 0 40.128-21.184 97.28 97.28 0 0 1 185.344 0c5.376 16.768 23.232 26.24 40.128 21.12a464.64 464.64 0 0 0 202.112-123.2c11.52-11.968 12.16-30.72 1.408-43.392a97.28 97.28 0 0 1 84.032-159.488 32.448 32.448 0 0 0 35.008-25.792 466.752 466.752 0 0 0-11.904-232.96 32.448 32.448 0 0 0-31.36-22.784h-1.344a97.28 97.28 0 0 1-87.36-140.16 32.448 32.448 0 0 0-7.04-38.08 464 464 0 0 0-192.128-107.52 32.448 32.448 0 0 0-37.504 16.448 97.28 97.28 0 0 1-173.44 0z m-161.92 172.096c0-16.704-2.496-32.832-7.168-48a399.232 399.232 0 0 1 126.08-71.04A161.92 161.92 0 0 0 528.704 199.68c53.12 0 100.224-25.536 129.792-64.96a399.232 399.232 0 0 1 126.08 71.04 162.176 162.176 0 0 0 131.776 208.512 400.832 400.832 0 0 1 8.576 153.6 162.176 162.176 0 0 0-126.848 240.896 399.872 399.872 0 0 1-128.128 78.656 162.048 162.048 0 0 0-282.496 0 399.872 399.872 0 0 1-128.128-78.72 162.112 162.112 0 0 0-126.848-240.896 403.84 403.84 0 0 1 8.64-153.6 162.176 162.176 0 0 0 139.008-160.448z" p-id="4016"></path></svg>