<?xml version="1.0" standalone="no"?><!DOCTYPE svg PUBLIC "-//W3C//DTD SVG 1.1//EN" "http://www.w3.org/Graphics/SVG/1.1/DTD/svg11.dtd"><svg t="1662616004649" class="icon" viewBox="0 0 1024 1024" version="1.1" xmlns="http://www.w3.org/2000/svg" p-id="3561" xmlns:xlink="http://www.w3.org/1999/xlink" width="200" height="200"><path d="M384 480a32 32 0 0 0-64 0v85.312a32 32 0 1 0 64 0V480zM554.624 394.688a32 32 0 1 0-64 0v170.624a32 32 0 0 0 64 0V394.688zM693.312 277.312a32 32 0 0 1 32 32v256a32 32 0 0 1-64 0v-256a32 32 0 0 1 32-32z" p-id="3562"></path><path d="M160 128A96 96 0 0 0 64 224v426.688a96 96 0 0 0 96 96h330.688v96a32 32 0 0 0 1.792 10.688H266.624a32 32 0 0 0 0 64h512a32 32 0 0 0 0-64H552.832a32 32 0 0 0 1.792-10.688v-96h330.688a96 96 0 0 0 96-96V224a96 96 0 0 0-96-96H160zM128 224a32 32 0 0 1 32-32h725.312a32 32 0 0 1 32 32v426.688a32 32 0 0 1-32 32H160a32 32 0 0 1-32-32V224z" p-id="3563"></path></svg>