<svg xmlns="http://www.w3.org/2000/svg" width="13.91" height="13.504" viewBox="0 0 13.91 13.504">
  <g id="资源" transform="translate(-5.3 -5.5)" opacity="0.65">
    <path id="路径_4769" data-name="路径 4769" d="M17.462,6H7.042A1.042,1.042,0,0,0,6,7.042v10.42A1.042,1.042,0,0,0,7.042,18.5h10.42A1.042,1.042,0,0,0,18.5,17.462V7.042A1.042,1.042,0,0,0,17.462,6Z" transform="translate(0 0)" fill="none" stroke-linecap="round" stroke-linejoin="round" stroke-width="1"/>
    <path id="路径_4770" data-name="路径 4770" d="M14.737,16.473A1.737,1.737,0,1,0,13,14.737,1.737,1.737,0,0,0,14.737,16.473Z" transform="translate(-4.569 -4.569)" fill="none" stroke-linecap="round" stroke-linejoin="round" stroke-width="1"/>
    <path id="路径_4771" data-name="路径 4771" d="M18.5,29.473,14.683,26,11.21,29.126,8.779,27.042,6,29.126" transform="translate(0 -13.054)" fill="none" stroke-linecap="round" stroke-linejoin="round" stroke-width="1"/>
  </g>
</svg>
