<svg xmlns="http://www.w3.org/2000/svg" width="14.223" height="15.664" viewBox="0 0 14.223 15.664">
  <defs>
    <style>
      .cls-1 {
        stroke-width: 0.1px;
        opacity: 0.65;
      }
    </style>
  </defs>
  <path id="财务" class="cls-1" d="M97.783,6.155a1.755,1.755,0,0,1,1.084,0l5.124,1.689a1.855,1.855,0,0,1,1.326,1.73V15.3l-.048.211a6.226,6.226,0,0,1-1.79,3.277,19.692,19.692,0,0,1-4.957,2.759l-.193.084-.415-.173a17.759,17.759,0,0,1-4.73-2.667A6.17,6.17,0,0,1,91.2,15.334l-.008-.039V9.585A1.856,1.856,0,0,1,92.533,7.85Zm.771.8a.752.752,0,0,0-.465,0L92.839,8.65a1,1,0,0,0-.721.934v5.629l.027.12a5.313,5.313,0,0,0,1.566,2.74l.114.1A16.468,16.468,0,0,0,98.095,20.6l.224.1.406-.18a17.859,17.859,0,0,0,4.035-2.271l.069-.061a5.524,5.524,0,0,0,1.572-3.01l-.01.04V9.577a.991.991,0,0,0-.647-.908l-.067-.024Zm2.522,3.006a.4.4,0,0,1,.084.561l-.03.037-2,2.16h1.9a.447.447,0,0,1,.467.4.438.438,0,0,1-.42.444l-.047,0H98.593v.824h2.432a.447.447,0,0,1,.463.4.438.438,0,0,1-.416.444l-.047,0H98.593v2.166a.442.442,0,0,1-.439.425.452.452,0,0,1-.484-.381l0-.043V15.242H95.316a.447.447,0,0,1-.459-.4.437.437,0,0,1,.412-.444l.047,0h2.352v-.825H95.192a.447.447,0,0,1-.459-.4.437.437,0,0,1,.412-.444l.047,0h1.958l-1.943-2.165a.4.4,0,0,1,.044-.582.493.493,0,0,1,.636.008l.034.034,2.215,2.467,2.289-2.472a.492.492,0,0,1,.652-.049Z" transform="translate(-91.144 -6.018)"/>
</svg>
