<?xml version="1.0" standalone="no"?><!DOCTYPE svg PUBLIC "-//W3C//DTD SVG 1.1//EN" "http://www.w3.org/Graphics/SVG/1.1/DTD/svg11.dtd"><svg t="1525499891937" class="icon" style="" viewBox="0 0 1291 1024" version="1.1" xmlns="http://www.w3.org/2000/svg" p-id="1508" xmlns:xlink="http://www.w3.org/1999/xlink" width="252.1484375" height="200"><defs><style type="text/css"></style></defs><path d="M779.656047 669.379378a31.50762 31.50762 0 0 1-22.37041-9.294747L645.906202 548.705195l-111.379436 111.379436a31.50762 31.50762 0 0 1-44.583281-44.583282l133.749845-133.592307a31.50762 31.50762 0 0 1 44.425744 0l133.749845 133.592307a31.50762 31.50762 0 0 1-22.212872 53.878029z" fill="" p-id="1509"></path><path d="M960.982398 1023.997637H787.69049a31.50762 31.50762 0 0 1 0-63.015239h166.360231a29.302086 29.302086 0 0 1 5.356296 0 283.568576 283.568576 0 0 0 54.980796-557.527329 31.50762 31.50762 0 0 1-23.630715-27.411629 346.583816 346.583816 0 0 0-689.701793 0 31.50762 31.50762 0 0 1-23.788253 27.411629A283.568576 283.568576 0 0 0 332.405387 960.982398a31.50762 31.50762 0 0 1 5.513833 0H645.906202a31.50762 31.50762 0 0 1 0 63.015239H330.830006a33.398077 33.398077 0 0 1-8.979672-1.260305 346.583816 346.583816 0 0 1-80.817044-675.05075 409.599055 409.599055 0 0 1 809.745824 0 346.583816 346.583816 0 0 1-81.132121 675.208288A31.50762 31.50762 0 0 1 960.982398 1023.997637z" fill="" p-id="1510"></path><path d="M645.906202 1008.243827a31.50762 31.50762 0 0 1-31.50762-31.507619V551.383343a31.50762 31.50762 0 0 1 63.015239 0v425.352865a31.50762 31.50762 0 0 1-31.507619 31.507619z" fill="" p-id="1511"></path></svg>