<svg xmlns="http://www.w3.org/2000/svg" width="14.152" height="14.242" viewBox="0 0 14.152 14.242">
  <g id="产品" transform="translate(-26.237 -238.89)" opacity="0.65">
    <g id="组_6574" data-name="组 6574" transform="translate(-7.786 239)">
      <path id="路径_4638" data-name="路径 4638" d="M46.353,0H35.836a1.777,1.777,0,0,0-1.7,1.8V12.32a1.688,1.688,0,0,0,1.7,1.7H46.353a1.688,1.688,0,0,0,1.7-1.7V1.8a1.656,1.656,0,0,0-1.7-1.8ZM35.836.9H46.353a.9.9,0,0,1,0,1.8H35.836a.9.9,0,0,1-.9-.9.968.968,0,0,1,.9-.9ZM46.353,13.121H35.836a.9.9,0,0,1-.9-.9V3.205a1.488,1.488,0,0,0,.9.2H46.353a2.924,2.924,0,0,0,.9-.2v9.014A.841.841,0,0,1,46.353,13.121Z" stroke="none" stroke-width="0.22"/>
      <path id="路径_4639" data-name="路径 4639" d="M219.539,382.293a.883.883,0,0,0-.9.8,1.041,1.041,0,0,0,.4.8,3.036,3.036,0,0,1-6.01,0,1.041,1.041,0,0,0,.4-.8.908.908,0,0,0-1.8,0,1.021,1.021,0,0,0,.5.8,3.929,3.929,0,0,0,7.812,0,.793.793,0,0,0,.5-.8A.883.883,0,0,0,219.539,382.293Z" transform="translate(-174.889 -376.684)"  stroke="none" stroke-width="0.22"/>
    </g>
  </g>
</svg>
