<?xml version="1.0" standalone="no"?><!DOCTYPE svg PUBLIC "-//W3C//DTD SVG 1.1//EN" "http://www.w3.org/Graphics/SVG/1.1/DTD/svg11.dtd"><svg t="1525499725559" class="icon" style="" viewBox="0 0 1024 1024" version="1.1" xmlns="http://www.w3.org/2000/svg" p-id="5783" xmlns:xlink="http://www.w3.org/1999/xlink" width="200" height="200"><defs><style type="text/css"></style></defs><path d="M1004.676033 537.329798l-0.876604-49.259057c-0.430701-24.140556-10.23549-46.667755-27.609475-63.433691-17.372971-16.764922-40.190007-25.769114-64.376167-25.331318l-23.766606 0.422594c-8.056648-26.214003-18.738041-51.493637-31.933716-75.575415l20.776018-19.146447c17.755029-16.362597 28.074632-38.657724 29.059672-62.782065 0.984026-24.124341-7.484069-47.186624-23.845652-64.941652l-33.38594-36.229582c-33.775091-36.649136-91.073569-38.990124-127.723718-5.213006l-27.83344 25.650544c-22.645769-12.353527-46.355624-22.49477-70.891411-30.322387L622.268994 106.945672c0-49.840757-40.548756-90.389514-90.389514-90.389514l-49.266151 0c-49.840757 0-90.389514 40.548756-90.389514 90.389514l0 18.869785c-26.46533 7.091877-52.096619 16.835861-76.618219 29.129597l-17.051719-15.714011c-17.755029-16.361583-40.820351-24.828665-64.941652-23.845652-24.124341 0.984026-46.420482 11.304643-62.782065 29.058658l-33.386953 36.228569c-33.776105 36.651163-31.437143 93.947613 5.21402 127.723718l4.22898 3.89658c-16.881465 28.479998-30.128824 58.726379-39.587026 90.394581-23.988544-0.322266-46.671809 8.673818-63.942425 25.338412-17.373985 16.764922-27.178774 39.293135-27.608462 63.432678l-0.877617 49.258044c-0.430701 24.139542 8.566396 47.003196 25.332332 64.376167 16.764922 17.373985 39.293135 27.17776 63.432678 27.608462l2.429155 0.043577c8.783267 30.587901 21.105378 59.927276 36.82243 87.676602l-5.402515 5.853484c-16.373744 17.743881-24.858054 40.801097-23.888216 64.925438 0.968825 24.125355 11.274241 46.427576 29.017108 62.80132l36.207287 33.411275c17.350676 16.010942 39.331645 23.920645 61.26397 23.919631 24.367561-0.002027 48.674317-9.77236 66.462788-29.049538l1.405606-1.522149c27.445302 14.50298 56.320532 25.748845 86.298358 33.610918l0 2.270049c0 49.841771 40.548756 90.389514 90.389514 90.389514l49.266151 0c49.841771 0 90.389514-40.548756 90.389514-90.389514l0-8.817723c28.435408-9.227142 55.671947-21.541147 81.430926-36.812296l7.274292 7.882341c16.372731 17.743881 38.675966 28.049297 62.80132 29.018122 24.135489 0.981999 47.183583-7.514471 64.925438-23.887202l36.207287-33.411275c17.743881-16.372731 28.049297-38.676979 29.018122-62.80132 0.968825-24.125355-7.514471-47.18257-23.888216-64.925438l-19.026864-20.619953c11.64515-23.244697 21.007077-47.497742 27.988492-72.510848l24.888456-0.443876C965.743673 628.426675 1005.563784 587.162448 1004.676033 537.329798zM931.325064 556.584681c-4.563407 4.414435-10.742198 6.763531-17.090229 6.87602l-49.751577 0.886738c-15.358303 0.273622-28.488106 11.128309-31.644893 26.161305l0 0.001013c-7.414143 35.300281-20.350384 69.05713-38.447947 100.33314l-0.001013 0.001013c-7.226662 12.488312-5.482575 28.226645 4.301946 38.830005l34.960787 37.886515c4.441797 4.812707 6.742249 11.066491 6.480788 17.61011-0.263488 6.54362-3.058486 12.592693-7.871193 17.034491l-36.207287 33.411275c-4.813721 4.440784-11.086759 6.747316-17.611124 6.479775-6.54362-0.263488-12.592693-3.058486-17.034491-7.871193l-25.994092-28.169893c-11.131349-12.062677-29.445783-14.08748-42.943456-4.748862l0 0c-33.364658 23.083564-70.130337 39.866728-109.27754 49.884334l0 0c-14.575946 3.729367-24.7709 16.86221-24.7709 31.907368l0 33.546059c0 13.54125-10.97731 24.517546-24.517546 24.517546l-49.265138 0c-13.54125 0-24.517546-10.97731-24.517546-24.517546l0-28.561072c0-15.801165-11.221543-29.375857-26.740978-32.34719l-0.001013 0c-40.672393-7.789107-79.216614-22.794741-114.563512-44.602416l-0.001013 0c-13.412546-8.275546-30.808826-5.888954-41.497313 5.694378l-19.181917 20.787166c-9.168364 9.935519-24.710095 10.559783-34.644601 1.391419l-36.207287-33.411275c-4.812707-4.440784-7.607706-10.490871-7.871193-17.034491-0.262474-6.54362 2.037977-12.797403 6.479775-17.61011l22.234323-24.094952c10.230423-11.086759 11.620828-27.706763 3.373658-40.338979l0 0c-22.693399-34.763171-38.679006-72.876691-47.51193-113.284583l0-0.001013c-3.259142-14.907333-16.331181-25.624195-31.588142-25.896804l-27.59326-0.491506c-13.516928-0.240179-24.317903-11.432333-24.077724-24.949261l0.868497-48.743229c0.113502-6.361205 2.469692-12.55317 6.897302-17.122658 4.779265-4.93229 11.225597-7.581357 18.062093-7.470895l25.408338 0.452996c15.585307 0.277676 29.229925-10.407771 32.696818-25.60494l0-0.001013c9.661897-42.354662 27.137224-82.014653 51.93954-117.878392l0-0.001013c9.339632-13.504767 7.305708-31.826294-4.76913-42.952576l-24.538828-22.614353c-9.9416-9.162284-10.575998-24.703001-1.414727-34.644601l33.386953-36.228569c4.437744-4.815748 10.485804-7.615813 17.029424-7.882341 6.542606-0.265515 12.798417 2.02987 17.614164 6.468627l34.320308 31.628678c10.605387 9.773373 26.336626 11.510366 38.817844 4.284718l0.001013-0.001013c32.520484-18.824181 67.672806-32.050259 104.480034-39.310363l0.001013 0c15.435322-3.044298 26.561604-16.580481 26.561604-32.31172L458.092743 106.945672c0-13.540236 10.97731-24.517546 24.517546-24.517546l49.266151 0c13.540236 0 24.517546 10.97731 24.517546 24.517546l0 49.089817c0 15.11407 10.287174 28.28745 24.949261 31.951958l0.001013 0c34.914169 8.725502 68.109587 22.898109 98.661006 42.123603l0.001013 0.001013c12.587626 7.920851 28.922861 6.42201 39.859634-3.656401l45.763789-42.174274c9.940587-9.162284 25.482317-8.5289 34.644601 1.413714l33.38594 36.229582c4.438757 4.815748 6.735155 11.071558 6.468627 17.614164s-3.06558 12.590666-7.881328 17.029424l-40.377489 37.210568c-11.745478 10.824284-14.031742 28.516481-5.42177 41.970577l0 0c20.707106 32.361377 35.680311 67.672806 44.506141 104.954312l0 0.001013c3.56722 15.069479 17.152047 25.619128 32.636013 25.342466l49.395868-0.879644c6.541593-0.119583 12.749773 2.32376 17.461138 6.871966 4.712379 4.547193 7.37158 10.658084 7.489136 17.204744l0 0 0.876604 49.260071C938.936823 545.341856 936.268501 551.80339 931.325064 556.584681z" p-id="5784"></path><path d="M509.272222 371.354736c-79.069669 0-143.398206 64.328536-143.398206 143.398206s64.328536 143.398206 143.398206 143.398206 143.398206-64.328536 143.398206-143.398206S588.341891 371.354736 509.272222 371.354736zM509.272222 592.27918c-42.747867 0-77.526238-34.777358-77.526238-77.526238 0-42.747867 34.778372-77.526238 77.526238-77.526238 42.74888 0 77.526238 34.778372 77.526238 77.526238C586.79846 557.501821 552.020088 592.27918 509.272222 592.27918z" p-id="5785"></path></svg>