<?xml version="1.0" standalone="no"?><!DOCTYPE svg PUBLIC "-//W3C//DTD SVG 1.1//EN" "http://www.w3.org/Graphics/SVG/1.1/DTD/svg11.dtd"><svg t="1523793686319" class="icon" style="" viewBox="0 0 1024 1024" version="1.1" xmlns="http://www.w3.org/2000/svg" p-id="2491" xmlns:xlink="http://www.w3.org/1999/xlink" width="200" height="200"><defs><style type="text/css"></style></defs><path d="M908.785955 492.415966c-11.04966 0-20.008706 8.958022-20.008706 20.008706l0 338.328565c0 38.614459-31.416524 70.030983-70.030983 70.030983L202.707748 920.78422c-38.614459 0-70.030983-31.416524-70.030983-70.030983l0-676.303067c0-38.614459 31.416524-70.030983 70.030983-70.030983l362.378308 0c11.04966 0 20.008706-8.958022 20.008706-20.008706 0-11.050684-8.959046-20.008706-20.008706-20.008706L202.707748 64.401776c-60.681034 0-110.049418 49.367361-110.049418 110.049418l0 676.303067c0 60.681034 49.367361 110.049418 110.049418 110.049418l616.038518 0c60.681034 0 110.049418-49.367361 110.049418-110.049418L928.795685 512.425695C928.795685 501.373988 919.836639 492.415966 908.785955 492.415966z" p-id="2492"></path><path d="M942.576549 117.985158 907.20597 82.614579c-23.405059-23.405059-61.486376-23.400966-84.891436 0l-422.369633 422.36861c-1.295506 1.296529-2.407839 2.76395-3.304256 4.363378L269.318842 736.416166c-4.457522 7.951089-2.977821 17.909905 3.598968 24.221658 3.830235 3.675716 8.823969 5.572926 13.859659 5.572926 3.613294 0 7.247054-0.977257 10.488889-2.973728l219.285309-135.104047c1.327228-0.816598 2.552126-1.784646 3.654226-2.885723l422.369633-422.36861C965.979562 179.471534 965.979562 141.390217 942.576549 117.985158zM418.556794 552.080857l55.42124 55.279001-132.025942 81.343633L418.556794 552.080857zM914.279063 174.579107 505.926678 582.930469l-63.748906-63.586201L850.612021 110.912066c7.798617-7.800663 20.493753-7.804756 28.29544 0l35.371602 35.371602C922.081773 154.084331 922.081773 166.777421 914.279063 174.579107z" p-id="2493"></path></svg>