<?xml version="1.0" standalone="no"?><!DOCTYPE svg PUBLIC "-//W3C//DTD SVG 1.1//EN" "http://www.w3.org/Graphics/SVG/1.1/DTD/svg11.dtd"><svg t="1662615986063" class="icon" viewBox="0 0 1024 1024" version="1.1" xmlns="http://www.w3.org/2000/svg" p-id="2797" xmlns:xlink="http://www.w3.org/1999/xlink" width="200" height="200"><path d="M212.928 896a27.84 27.84 0 0 1-27.904-27.712v-67.84c0-67.84 20.48-133.056 59.328-188.736a335.808 335.808 0 0 1 152.064-120.512l10.176-3.968-8.64-6.72a195.84 195.84 0 0 1-76.288-155.136C321.664 216.576 410.88 128 520.384 128s198.72 88.512 198.72 197.376a195.84 195.84 0 0 1-76.288 155.136l-8.576 6.72 10.112 3.968a335.808 335.808 0 0 1 152.128 120.512c38.784 55.68 59.264 120.96 59.264 188.736v67.84a27.84 27.84 0 0 1-27.904 27.712H212.928z m307.52-373.312c-154.176 0-279.552 124.608-279.552 277.76v40.192h559.04v-40.192c0-153.152-125.44-277.76-279.488-277.76z m0-339.328a142.592 142.592 0 0 0-142.912 142.016A142.592 142.592 0 0 0 520.32 467.328a142.592 142.592 0 0 0 142.912-141.952A142.592 142.592 0 0 0 520.32 183.36z m-444.16 610.816a27.84 27.84 0 0 1-27.904-27.648v-52.48C48.384 614.4 103.424 524.224 192 478.72l7.232-3.712-5.504-6.08a162.432 162.432 0 0 1-42.752-109.632c0-89.152 72.256-161.92 161.664-163.392a315.072 315.072 0 0 0-1.728 2.752 208.768 208.768 0 0 0-31.744 59.2c-43.456 15.36-72.384 55.68-72.384 101.44 0 42.24 25.024 80.896 63.872 98.368l0.128 0.128h0.192c11.52 4.416 19.072 14.4 19.072 25.6a28.16 28.16 0 0 1-20.032 25.856l-6.4 1.536a209.6 209.6 0 0 0-159.36 203.2v24.832h32.64c-3.328 18.24-5.12 36.8-5.504 55.36h-55.04z m832.832 0a343.552 343.552 0 0 0-5.504-55.36h32.64v-24.832a209.6 209.6 0 0 0-159.36-203.2l-6.4-1.536a28.16 28.16 0 0 1-20.032-25.856c0-11.2 7.488-21.184 19.008-25.6h0.192l0.192-0.128c38.784-17.472 63.872-56.064 63.872-98.368 0-45.76-28.992-86.144-72.448-101.44a208.512 208.512 0 0 0-31.744-59.2 226.304 226.304 0 0 0-1.664-2.752 164.16 164.16 0 0 1 161.664 163.456c0 40.448-15.168 79.36-42.816 109.568l-5.504 6.08 7.296 3.712a263.552 263.552 0 0 1 143.488 235.264v52.48a27.84 27.84 0 0 1-27.904 27.712h-55.04z" p-id="2798"></path></svg>