<?xml version="1.0" standalone="no"?><!DOCTYPE svg PUBLIC "-//W3C//DTD SVG 1.1//EN" "http://www.w3.org/Graphics/SVG/1.1/DTD/svg11.dtd"><svg t="1662616007184" class="icon" viewBox="0 0 1024 1024" version="1.1" xmlns="http://www.w3.org/2000/svg" p-id="3714" xmlns:xlink="http://www.w3.org/1999/xlink" width="200" height="200"><path d="M986.752 418.368a178.56 178.56 0 0 0-8.832-56.256 29.44 29.44 0 0 0-1.92-6.976l-78.08-194.112c-13.44-40.256-52.288-64.896-97.664-65.024H252.864c-46.016 0-81.728 24.448-94.72 63.104l-83.84 198.144a42.048 42.048 0 0 0-1.152 4.608 182.848 182.848 0 0 0 48 190.016l0.256 291.072c0 46.912 38.272 85.056 85.248 85.056l626.112-0.384c46.976-0.128 85.12-38.4 85.12-85.312V561.6a183.04 183.04 0 0 0 68.864-143.232z m-154.048 442.688l-626.048 0.384a18.624 18.624 0 0 1-18.688-18.56l-0.192-251.136c18.048 5.696 37.888 8.576 59.328 8.576a182.272 182.272 0 0 0 139.648-65.216 182.144 182.144 0 0 0 139.008 64.896 181.632 181.632 0 0 0 138.24-65.024 181.76 181.76 0 0 0 139.968 64.896c16.768 0 32.64-1.92 47.36-5.44v247.872a18.752 18.752 0 0 1-18.624 18.752z m26.88-340.288c-15.04 8.256-33.792 12.48-55.68 12.608-40.512 0-77.44-20.608-99.008-55.488a52.8 52.8 0 0 0-8.896-14.016 41.088 41.088 0 0 0-31.872-13.44 41.6 41.6 0 0 0-32.064 13.76 56.192 56.192 0 0 0-8.704 13.76 115.648 115.648 0 0 1-97.664 55.488 115.776 115.776 0 0 1-98.304-55.68c-1.536-3.008-4.032-8.192-7.936-12.544-15.616-18.688-50.56-17.728-64.256-1.408a53.312 53.312 0 0 0-9.344 14.72 116.416 116.416 0 0 1-98.816 55.296c-21.44 0-39.872-4.032-54.72-11.968a116.288 116.288 0 0 1-55.424-140.8 31.232 31.232 0 0 0 0.832-3.008l82.56-195.2c1.664-4.992 6.784-20.224 32.512-20.224h547.584c10.56 0.64 28.672 2.56 35.2 21.504l77.312 192.576c0.256 1.344 0.64 2.688 0.96 3.84a116.416 116.416 0 0 1-54.208 140.224z" p-id="3715"></path></svg>