<svg xmlns="http://www.w3.org/2000/svg" width="15.881" height="15.881" viewBox="0 0 15.881 15.881">
  <defs>
    <style>
      .cls-1 {
        opacity: 0.65;
      }

      .cls-2 {
      }
    </style>
  </defs>
  <g id="分销" class="cls-1" transform="translate(-85.325 -85.325)">
    <path id="路径_4784" data-name="路径 4784" class="cls-2" d="M95.648,87.707a2.382,2.382,0,1,0-2.382,2.382A2.382,2.382,0,0,0,95.648,87.707Zm-1.191,0a1.191,1.191,0,1,1-1.191-1.191A1.191,1.191,0,0,1,94.457,87.707Zm-4.367,9.528a2.382,2.382,0,1,0-2.382,2.382A2.382,2.382,0,0,0,90.089,97.236Zm-1.191,0a1.191,1.191,0,1,1-1.191-1.191A1.191,1.191,0,0,1,88.9,97.236Zm9.926,2.382a2.382,2.382,0,1,0-2.382-2.382A2.382,2.382,0,0,0,98.824,99.618Zm0-1.191a1.191,1.191,0,1,1,1.191-1.191A1.191,1.191,0,0,1,98.824,98.427Z" transform="translate(0 0)"/>
    <path id="路径_4785" data-name="路径 4785" class="cls-2" d="M135.063,233.089a5.733,5.733,0,0,0-2.479,4.3,3.575,3.575,0,0,0-1.358.334,7.079,7.079,0,0,1,3.446-5.962,3.6,3.6,0,0,0,.391,1.333Zm8.967,4.3a5.734,5.734,0,0,0-2.479-4.3,3.68,3.68,0,0,0,.391-1.333,7.08,7.08,0,0,1,3.446,5.96A3.629,3.629,0,0,0,144.03,237.385Zm-5.725,6.186a5.69,5.69,0,0,0,2.479-.569,3.627,3.627,0,0,0,.962,1.01,7.035,7.035,0,0,1-6.888,0,3.573,3.573,0,0,0,.967-1.01A5.731,5.731,0,0,0,138.306,243.57Z" transform="translate(-45.047 -143.706)"/>
  </g>
</svg>
