<?xml version="1.0" standalone="no"?><!DOCTYPE svg PUBLIC "-//W3C//DTD SVG 1.1//EN" "http://www.w3.org/Graphics/SVG/1.1/DTD/svg11.dtd"><svg t="1662615969453" class="icon" viewBox="0 0 1024 1024" version="1.1" xmlns="http://www.w3.org/2000/svg" p-id="2491" xmlns:xlink="http://www.w3.org/1999/xlink" width="200" height="200"><path d="M646.4 64H256c-51.2 0-96 44.8-96 96v704c0 51.2 44.8 96 96 96h512c51.2 0 96-44.8 96-96V294.4L646.4 64zM640 147.2l128 140.8h-96c-19.2 0-32-12.8-32-32V147.2z m160 716.8c0 19.2-12.8 32-32 32H256c-19.2 0-32-12.8-32-32v-704c0-19.2 12.8-32 32-32h320v128c0 51.2 44.8 96 96 96h128v512z" p-id="2492"></path><path d="M320 512c0-19.2 12.8-32 32-32h320c19.2 0 32 12.8 32 32s-12.8 32-32 32h-320c-19.2 0-32-12.8-32-32zM320 704c0-19.2 12.8-32 32-32h320c19.2 0 32 12.8 32 32s-12.8 32-32 32h-320c-19.2 0-32-12.8-32-32z" p-id="2493"></path></svg>