<?xml version="1.0" standalone="no"?><!DOCTYPE svg PUBLIC "-//W3C//DTD SVG 1.1//EN" "http://www.w3.org/Graphics/SVG/1.1/DTD/svg11.dtd"><svg t="1662615995358" class="icon" viewBox="0 0 1024 1024" version="1.1" xmlns="http://www.w3.org/2000/svg" p-id="3254" xmlns:xlink="http://www.w3.org/1999/xlink" width="200" height="200"><path d="M32 136.53333333a32 32 0 0 1 32-32h896a32 32 0 0 1 0 64H64A32 32 0 0 1 32 136.53333333z" p-id="3255"></path><path d="M448 735.63733333a32 32 0 0 0-53.248-35.456l-128 192A32 32 0 0 0 320 927.57333333l128-192zM586.752 735.63733333a32 32 0 0 1 53.248-35.456l128 192a32 32 0 1 1-53.248 35.456l-128-192z" p-id="3256"></path><path d="M792.128 307.54133333a32 32 0 0 1-3.136 45.12L631.488 489.81333333a32 32 0 0 1-33.344 5.376l-178.56-74.624-142.592 124.16a32 32 0 1 1-41.984-48.32L392.512 359.25333333a32 32 0 0 1 33.344-5.376l178.56 74.624 142.592-124.16a32 32 0 0 1 45.12 3.2z" p-id="3257"></path><path d="M160 136.53333333v512a32 32 0 0 0 32 32h640a32 32 0 0 0 32-32V136.53333333h64v512a96 96 0 0 1-96 96H192A96 96 0 0 1 96 648.53333333V136.53333333h64z" p-id="3258"></path></svg>