<svg xmlns="http://www.w3.org/2000/svg" width="14.467" height="13.441" viewBox="0 0 14.467 13.441">
  <path id="配送" d="M23.519,9.61v3.42a.5.5,0,0,1-.475.521h-.413v8a.9.9,0,0,1-.242.62.8.8,0,0,1-.585.257H10.866a.8.8,0,0,1-.584-.257.9.9,0,0,1-.243-.62v-8H9.629a.5.5,0,0,1-.477-.518V9.609a.5.5,0,0,1,.474-.521H23.042a.5.5,0,0,1,.477.519v0Zm-13.413,2.9H22.565V10.133H10.105v2.376ZM17.767,16.4V13.553h-2.92V16.4l1.293-.523a.441.441,0,0,1,.332,0l1.293.523Zm.312,1.24-1.771-.717-1.771.718a.468.468,0,0,1-.614-.309.566.566,0,0,1-.031-.182V13.552H11v7.833H21.678V13.552H18.722v3.594a.5.5,0,0,1-.477.522.441.441,0,0,1-.165-.033Z" transform="translate(-9.102 -9.038)" stroke-width="0.1" opacity="0.65"/>
</svg>
