<?xml version="1.0" standalone="no"?><!DOCTYPE svg PUBLIC "-//W3C//DTD SVG 1.1//EN" "http://www.w3.org/Graphics/SVG/1.1/DTD/svg11.dtd"><svg t="1662615926541" class="icon" viewBox="0 0 1024 1024" version="1.1" xmlns="http://www.w3.org/2000/svg" p-id="2186" xmlns:xlink="http://www.w3.org/1999/xlink" width="200" height="200"><path d="M582.4 96L928 384c64 57.6 32 160-57.6 172.8v294.4c0 51.2-44.8 96-96 96H576v-230.4c0-19.2-12.8-32-32-32h-64c-19.2 6.4-32 19.2-32 38.4v230.4H249.6c-51.2 0-96-44.8-96-96V556.8C70.4 550.4 32 441.6 96 384l358.4-288c38.4-32 96-32 128 0z m-38.4 51.2c-12.8-12.8-32-12.8-44.8 0L140.8 435.2c-25.6 19.2-12.8 57.6 19.2 57.6h51.2v358.4c0 19.2 12.8 32 32 32H384v-166.4c0-51.2 44.8-96 96-96h64c51.2 0 96 44.8 96 96v166.4h134.4c19.2 0 32-12.8 32-32V492.8h51.2c32 0 44.8-38.4 19.2-57.6L544 147.2z" p-id="2187"></path></svg>