<svg xmlns="http://www.w3.org/2000/svg" width="13.673" height="15.211" viewBox="0 0 13.673 15.211">
  <defs>
    <style>
      .cls-1 {
      }
    </style>
  </defs>
  <path id="结算" class="cls-1" d="M66.174,12.351v-5.1a.55.55,0,0,1,1.094,0v5.1a.55.55,0,0,1-1.094,0h0Zm3.843-1.533h-5.5a.553.553,0,0,1,0-1.106h5.5a.553.553,0,0,1,0,1.106h0Zm0-2.443h-5.5a.553.553,0,0,1,0-1.106h5.5a.553.553,0,0,1,0,1.106h0ZM66.994,7.268a.541.541,0,0,1-.383-.158L64.146,4.645a.543.543,0,1,1,.768-.767l2.08,2.079,2.082-2.079a.542.542,0,0,1,.767.766L67.378,7.11a.55.55,0,0,1-.384.158h0Zm4.586,7.943H62.413a2.215,2.215,0,0,1-2.253-2.173V2.1A2.145,2.145,0,0,1,62.341,0h7.728a1.375,1.375,0,0,1,.955.383l2.416,2.346a1.261,1.261,0,0,1,.392.915v9.393a2.219,2.219,0,0,1-2.253,2.174ZM62.341,1.023A1.1,1.1,0,0,0,61.221,2.1V13.036a1.172,1.172,0,0,0,1.191,1.149h9.165a1.172,1.172,0,0,0,1.191-1.149V3.646a.268.268,0,0,0-.083-.195L70.271,1.106a.293.293,0,0,0-.2-.08H62.341v0Z" transform="translate(-60.16)"/>
</svg>
