<?xml version="1.0" standalone="no"?><!DOCTYPE svg PUBLIC "-//W3C//DTD SVG 1.1//EN" "http://www.w3.org/Graphics/SVG/1.1/DTD/svg11.dtd"><svg t="1662615961096" class="icon" viewBox="0 0 1024 1024" version="1.1" xmlns="http://www.w3.org/2000/svg" p-id="2338" xmlns:xlink="http://www.w3.org/1999/xlink" width="200" height="200"><path d="M384 544c-19.2 0-32 12.8-32 32s12.8 32 32 32h256c19.2 0 32-12.8 32-32s-12.8-32-32-32H384z" p-id="2339"></path><path d="M921.6 371.2l-115.2-236.8c-12.8-25.6-38.4-38.4-64-38.4H281.6c-25.6 0-51.2 12.8-64 38.4L102.4 371.2l-6.4 6.4v448c0 57.6 44.8 102.4 102.4 102.4h627.2c57.6 0 102.4-44.8 102.4-102.4v-448l-6.4-6.4zM544 166.4h198.4L832 352H544V166.4z m-262.4 0h198.4v185.6H185.6l96-185.6z m576 659.2c0 19.2-12.8 32-32 32H198.4c-19.2 0-32-12.8-32-32V422.4h691.2v403.2z" p-id="2340"></path></svg>