<?xml version="1.0" standalone="no"?><!DOCTYPE svg PUBLIC "-//W3C//DTD SVG 1.1//EN" "http://www.w3.org/Graphics/SVG/1.1/DTD/svg11.dtd"><svg t="1523793655710" class="icon" style="" viewBox="0 0 1024 1024" version="1.1" xmlns="http://www.w3.org/2000/svg" p-id="2112" xmlns:xlink="http://www.w3.org/1999/xlink" width="200" height="200"><defs><style type="text/css"></style></defs><path d="M925.007405 706.493669c-9.007141-8.121981-23.219841-18.370393-42.243103-30.456662-5.865591-3.725858-9.318226-10.111289-9.238408-17.07898l0.031722-2.539846c0.60989-51.78134 1.529843-130.034589-12.19167-209.543434-16.686031-96.679923-51.42216-172.286901-103.242386-224.720088-40.829917-41.314964-92.434226-68.674079-154.064888-81.818447-3.056616-19.094894-12.19781-36.341696-26.516934-49.569976-17.135262-15.8285-40.165792-24.546046-64.846914-24.546046-24.679076 0-47.709605 8.718569-64.844867 24.546046-14.31503 13.222139-23.455201 30.463826-26.514887 49.552579-61.343113 13.07069-112.581078 40.223097-152.97302 81.204463-117.15014 118.866225-114.199948 322.050834-112.614847 431.207929l0.085958 5.973038c0.099261 6.963599-3.508917 13.56597-9.417487 17.231453-19.403932 12.038174-33.983999 22.151509-43.334971 30.05655-24.833595 20.99415-39.076994 51.64831-39.076994 84.102467 0 28.354791 23.067368 51.42216 51.42216 51.42216l277.239232 0c0.540306 65.73412 54.174853 119.045303 120.032794 119.045303s119.492488-53.312206 120.032794-119.045303l275.389094 0c29.375028 0 53.272297-23.898293 53.272297-53.272297C961.390034 757.14221 948.130032 727.34558 925.007405 706.493669zM512.693802 106.235556c14.58723 0 27.973098 4.945639 37.694507 13.925151 4.253884 3.929496 7.624654 8.439206 10.070356 13.418614-15.392572-1.550309-31.31317-2.334161-47.76384-2.334161-16.395412 0-32.256658 0.775666-47.586808 2.308579C473.319026 117.106138 491.085668 106.235556 512.693802 106.235556zM512.695848 920.54579c-43.792389 0-79.464843-35.363416-80.005149-79.029938l160.010297 0C592.160691 885.183398 556.488237 920.54579 512.695848 920.54579zM908.117736 801.500487 115.422799 801.500487c-6.28924 0-11.406794-5.117554-11.406794-11.406794 0-20.652366 9.073656-40.169885 24.896017-53.543474 7.752568-6.553253 21.099551-15.755846 38.59911-26.614148 17.772782-11.026124 28.628014-30.875195 28.331255-51.798736l-0.085958-5.986341c-1.500167-103.306854-4.29277-295.599392 101.104699-402.537959 51.240011-51.990095 123.857912-78.352509 215.832673-78.352509 92.148723 0 165.147294 26.586518 216.96752 79.022775 45.958728 46.502104 77.003791 114.936729 92.27152 203.39848 13.098319 75.896574 12.20395 151.944598 11.611455 202.266703l-0.029676 2.541893c-0.246617 20.922519 10.143011 40.107463 27.78788 51.321876 16.656355 10.584056 29.764907 19.958564 36.906561 26.39823 14.722306 13.276375 23.165606 32.242332 23.165606 52.033074C921.375691 795.553031 915.427212 801.500487 908.117736 801.500487z" p-id="2113"></path><path d="M450.672236 213.276455c-24.200168 0-58.362222 22.532179-82.263585 43.620473-19.808138 17.477047-54.381561 53.168943-63.362096 95.835695-2.275833 10.812253 4.644787 21.423939 15.45704 23.698748 1.38965 0.292666 2.774183 0.433882 4.140297 0.433882 9.260921 0 17.575284-6.467295 19.558451-15.890922 4.823865-22.910802 23.295566-49.909713 50.681286-74.070996 26.590612-23.462365 49.811476-33.610492 55.788607-33.610492 11.048637 0 20.007683-8.958022 20.007683-20.007683C470.679919 222.234477 461.720873 213.276455 450.672236 213.276455z" p-id="2114"></path></svg>