<svg xmlns="http://www.w3.org/2000/svg" width="14.804" height="16.462" viewBox="0 0 14.804 16.462">
  <g id="消息" transform="translate(-26.244 -125.91)">
    <path id="路径_4640" data-name="路径 4640" d="M123.218,79.328h-9.826c-1.144,0-1.864-.245-2.2-.748a1.1,1.1,0,0,1-.113-1l.054-.094,1.708-2.234V72.429a5.573,5.573,0,0,1,4.479-5.444l.075-.007,1.9.007a5.573,5.573,0,0,1,4.479,5.444v2.827l1.763,2.328a1.1,1.1,0,0,1-.113,1C125.082,79.083,124.362,79.328,123.218,79.328Zm-11.382-1.4a.273.273,0,0,0,.047.2c.08.112.388.373,1.508.373h9.826c1.121,0,1.428-.261,1.508-.373a.271.271,0,0,0,.046-.2l-1.831-2.394V72.429a4.643,4.643,0,0,0-3.766-4.623h-1.742a4.662,4.662,0,0,0-3.767,4.623v3.107ZM119.754,67.5h-.828V66.461a.621.621,0,1,0-1.242,0V67.5h-.828V66.461a1.449,1.449,0,0,1,2.9,0ZM118.3,81.295a2.613,2.613,0,0,1-2.811-2.577h.828a2,2,0,0,0,3.967,0h.828A2.613,2.613,0,0,1,118.3,81.295Z" transform="translate(-84.659 60.988)" stroke="#fff" stroke-width="0.18" opacity="0.65"/>
  </g>
</svg>
