<?xml version="1.0" standalone="no"?><!DOCTYPE svg PUBLIC "-//W3C//DTD SVG 1.1//EN" "http://www.w3.org/Graphics/SVG/1.1/DTD/svg11.dtd"><svg t="1662615981859" class="icon" viewBox="0 0 1024 1024" version="1.1" xmlns="http://www.w3.org/2000/svg" p-id="2644" xmlns:xlink="http://www.w3.org/1999/xlink" width="200" height="200"><path d="M288 550.4c0-19.2 12.8-32 32-32h403.2c19.2 0 32 12.8 32 32s-12.8 32-32 32H320c-19.2 0-32-12.8-32-32zM320 652.8c-19.2 0-32 12.8-32 32s12.8 32 32 32h204.8c19.2 0 32-12.8 32-32s-12.8-32-32-32H320z" p-id="2645"></path><path d="M857.6 313.6h-115.2L601.6 128c-38.4-51.2-121.6-51.2-160 0L300.8 313.6H185.6c-57.6 0-102.4 44.8-102.4 102.4v403.2c0 57.6 44.8 102.4 102.4 102.4h672c57.6 0 102.4-44.8 102.4-102.4V416c0-57.6-44.8-102.4-102.4-102.4zM492.8 166.4c12.8-19.2 38.4-19.2 51.2 0l108.8 147.2H384l108.8-147.2z m396.8 652.8c0 19.2-12.8 32-32 32H185.6c-19.2 0-32-12.8-32-32V416c0-19.2 12.8-32 32-32h672c19.2 0 32 12.8 32 32v403.2z" p-id="2646"></path></svg>