<?xml version="1.0" standalone="no"?><!DOCTYPE svg PUBLIC "-//W3C//DTD SVG 1.1//EN" "http://www.w3.org/Graphics/SVG/1.1/DTD/svg11.dtd"><svg t="1662616001505" class="icon" viewBox="0 0 1024 1024" version="1.1" xmlns="http://www.w3.org/2000/svg" p-id="3409" xmlns:xlink="http://www.w3.org/1999/xlink" width="200" height="200"><path d="M256.256 96A96 96 0 0 0 160.64 183.296l-58.176 640A96 96 0 0 0 198.08 928h627.84a96 96 0 0 0 95.616-104.704l-58.24-640A96 96 0 0 0 767.744 96H256.256z m-31.872 93.12a32 32 0 0 1 31.872-29.12h511.488a32 32 0 0 1 31.872 29.12l58.176 640a32 32 0 0 1-31.872 34.88h-627.84a32 32 0 0 1-31.872-34.88l58.176-640zM384 320a32 32 0 0 0-64 0c0 94.72 92.992 160 192 160s192-65.28 192-160a32 32 0 1 0-64 0c0 46.72-50.304 96-128 96-77.76 0-128-49.28-128-96z" p-id="3410"></path></svg>