<svg xmlns="http://www.w3.org/2000/svg" xmlns:xlink="http://www.w3.org/1999/xlink" width="14" height="13.982" viewBox="0 0 14 13.982">
  <defs>
    <clipPath id="clip">
      <use xlink:href="#fill"/>
    </clipPath>
  </defs>
  <g id="直播" transform="translate(-2210 3200.982)" opacity="0.65">
    <g id="矩形_2262" data-name="矩形 2262" transform="translate(2210 -3198.018)" fill="none" stroke-width="1">
      <rect width="14" height="11.018" rx="2" stroke="none"/>
      <rect x="0.5" y="0.5" width="13" height="10.018" rx="1.5" fill="none"/>
    </g>
    <g id="多边形_1" data-name="多边形 1" transform="translate(2220.5 -3195.509) rotate(90)" fill="none"  stroke-width="1">
      <path d="M2.143,1.429a1,1,0,0,1,1.715,0L5.091,3.486A1,1,0,0,1,4.234,5H1.766A1,1,0,0,1,.909,3.486Z"/>
      <path d="M 2.999845504760742 1.943915605545044 L 1.766190052032471 3.999997615814209 L 4.233810424804688 4.000007629394531 L 2.999845504760742 1.943915605545044 M 3.000000238418579 0.9436526298522949 C 3.331645250320435 0.9436526298522949 3.66329026222229 1.105487823486328 3.857490301132202 1.429157733917236 L 5.091300010681152 3.485507726669312 C 5.491220474243164 4.152027606964111 5.011100292205811 4.999997615814209 4.233810424804688 4.999997615814209 L 1.766190052032471 4.999997615814209 C 0.9889001846313477 4.999997615814209 0.5087800025939941 4.152027606964111 0.9087004661560059 3.485507726669312 L 2.142510175704956 1.429157733917236 C 2.336710214614868 1.105487823486328 2.668355226516724 0.9436526298522949 3.000000238418579 0.9436526298522949 Z" stroke="none"/>
    </g>
    <g id="组_6837" data-name="组 6837" transform="translate(0.217 1)">
      <g id="矩形_2263" data-name="矩形 2263" transform="translate(2212.067 -3201.482) rotate(-30)" stroke-width="1">
        <rect width="1" height="4" rx="0.5" stroke="none"/>
        <rect x="0.5" y="0.5" height="3" fill="none"/>
      </g>
      <g id="矩形_2264" data-name="矩形 2264" transform="translate(2219.5 -3198.018) rotate(-150)" stroke-width="1">
        <rect id="fill" width="1" height="4" rx="0.5" stroke="none"/>
        <path d="M0,0.5h0.9999456405639648M0.5,0v3.999976873397827M0.9999456405639648,3.499976873397827h-0.9999456405639648M0.49994564056396484,3.999976873397827v-3.999976873397827" fill="none" clip-path="url(#clip)"/>
      </g>
    </g>
  </g>
</svg>
