<?xml version="1.0" standalone="no"?><!DOCTYPE svg PUBLIC "-//W3C//DTD SVG 1.1//EN" "http://www.w3.org/Graphics/SVG/1.1/DTD/svg11.dtd"><svg t="1662615992618" class="icon" viewBox="0 0 1024 1024" version="1.1" xmlns="http://www.w3.org/2000/svg" p-id="3101" xmlns:xlink="http://www.w3.org/1999/xlink" width="200" height="200"><path d="M380.16 384a32 32 0 0 1 45.248 0.96L512 475.392l86.592-90.432a32 32 0 0 1 46.208 44.288L550.4 527.808H640a32 32 0 0 1 0 64H544v50.56H640a32 32 0 0 1 0 64H544v63.36a32 32 0 0 1-64 0v-63.36H384a32 32 0 1 1 0-64h96v-50.56H384a32 32 0 0 1 0-64h89.6l-94.4-98.56A32 32 0 0 1 380.16 384z" p-id="3102"></path><path d="M128 160A96 96 0 0 1 224 64h512A96 96 0 0 1 832 160V192a96 96 0 0 1 96 96v576A96 96 0 0 1 832 960H224A96 96 0 0 1 128 864v-704zM224 128a32 32 0 0 0-32 32v704a32 32 0 0 0 32 32H832a32 32 0 0 0 32-32v-576A32 32 0 0 0 832 256H384a32 32 0 0 1 0-64h384v-32a32 32 0 0 0-32-32h-512z" p-id="3103"></path></svg>