<?xml version="1.0" standalone="no"?><!DOCTYPE svg PUBLIC "-//W3C//DTD SVG 1.1//EN" "http://www.w3.org/Graphics/SVG/1.1/DTD/svg11.dtd"><svg t="1662617388508" class="icon" viewBox="0 0 1024 1024" version="1.1" xmlns="http://www.w3.org/2000/svg" p-id="4167" xmlns:xlink="http://www.w3.org/1999/xlink" width="200" height="200"><path d="M966.4 620.8l-140.8-140.8 51.2-51.2 6.4-6.4 6.4-6.4 57.6-57.6c38.4-38.4 38.4-102.4 0-140.8l-140.8-140.8c-38.4-38.4-102.4-38.4-140.8 0l-121.6 128L403.2 57.6C364.8 19.2 300.8 19.2 262.4 57.6L121.6 198.4c-38.4 38.4-38.4 102.4 0 140.8l140.8 140.8-102.4 115.2c-6.4 0-12.8 6.4-12.8 12.8l-44.8 243.2c0 12.8 0 19.2 6.4 25.6 6.4 12.8 19.2 19.2 25.6 19.2l281.6-12.8c6.4 0 12.8-6.4 19.2-6.4L544 768l140.8 140.8c38.4 38.4 102.4 38.4 140.8 0l140.8-140.8c32-44.8 32-108.8 0-147.2z m-249.6-499.2c12.8-12.8 32-12.8 51.2 0l140.8 140.8c12.8 12.8 12.8 32 0 51.2l-44.8 44.8-185.6-185.6 38.4-51.2zM243.2 364.8L172.8 294.4c-12.8-12.8-12.8-32 0-51.2l140.8-140.8c12.8-12.8 32-12.8 51.2 0l140.8 140.8-192 192-25.6-25.6 70.4-70.4c12.8-12.8 12.8-32 0-44.8s-32-12.8-44.8 0L243.2 364.8z m281.6 326.4l-121.6 121.6-224 12.8 38.4-198.4 416-416 185.6 185.6-57.6 57.6-236.8 236.8z m390.4 25.6l-140.8 140.8c-12.8 12.8-32 12.8-51.2 0L704 832l70.4-70.4c12.8-12.8 12.8-32 0-44.8-12.8-12.8-32-12.8-44.8 0l-70.4 70.4-70.4-70.4 185.6-185.6 140.8 140.8c19.2 6.4 19.2 25.6 0 44.8z" p-id="4168"></path></svg>