<svg xmlns="http://www.w3.org/2000/svg" width="13.945" height="13.545" viewBox="0 0 13.945 13.545">
  <g id="报表" transform="translate(-27.297 -519.95)">
    <g id="组_6580" data-name="组 6580" transform="translate(-52.069 405.483)" opacity="0.65">
      <path id="路径_4656" data-name="路径 4656" d="M92.338,114.517h-12a.923.923,0,0,0-.923.923v9.23a.923.923,0,0,0,.923.923h12a.923.923,0,0,0,.923-.923v-9.23A.923.923,0,0,0,92.338,114.517Zm-12,.923h12v9.23h-12Z" transform="translate(0)" stroke-width="0.1"/>
      <path id="路径_4657" data-name="路径 4657" d="M202.133,311.568a.461.461,0,0,1,.705.591l-.054.063-3.511,3.5-2.62-2.528L194.48,315.4a.461.461,0,0,1-.589.057l-.065-.054a.461.461,0,0,1-.057-.588l.054-.065,2.814-2.855,2.625,2.532,2.871-2.858Zm.745,9.128a.5.5,0,0,1,.083.977l-.083.008h-9.222a.477.477,0,0,1-.462-.492.484.484,0,0,1,.378-.485l.083-.008Z" transform="translate(-111.933 -193.719)" stroke-width="0.1"/>
    </g>
  </g>
</svg>
