<svg xmlns="http://www.w3.org/2000/svg" width="14.537" height="14.537" viewBox="0 0 14.537 14.537">
  <defs>
    <style>
      .cls-1 {
      }
    </style>
  </defs>
  <path id="积分" class="cls-1" d="M70.858,79.134a2.431,2.431,0,0,1,0-3.365,2.556,2.556,0,0,1-.676-1.684c0-2.257,3.292-3.9,7.269-3.9s7.269,1.646,7.269,3.9a2.558,2.558,0,0,1-.676,1.684,2.431,2.431,0,0,1,0,3.365,2.562,2.562,0,0,1,.676,1.681c0,2.257-3.292,3.9-7.269,3.9s-7.269-1.646-7.269-3.9a2.559,2.559,0,0,1,.676-1.681Zm.806.714a1.5,1.5,0,0,0-.405.967c0,1.46,2.734,2.827,6.192,2.827s6.192-1.367,6.192-2.827a1.5,1.5,0,0,0-.405-.967,11.873,11.873,0,0,1-11.573,0Zm11.573-3.365a11.872,11.872,0,0,1-11.572,0,1.5,1.5,0,0,0-.406.967c0,1.46,2.734,2.827,6.192,2.827s6.192-1.367,6.192-2.827a1.5,1.5,0,0,0-.405-.967Zm-5.787.429c3.458,0,6.192-1.367,6.192-2.827s-2.734-2.827-6.192-2.827-6.192,1.367-6.192,2.827S73.992,76.912,77.45,76.912Z" transform="translate(-70.182 -70.182)"/>
</svg>
