<?xml version="1.0" standalone="no"?><!DOCTYPE svg PUBLIC "-//W3C//DTD SVG 1.1//EN" "http://www.w3.org/Graphics/SVG/1.1/DTD/svg11.dtd"><svg t="1525767824715" class="icon" style="" viewBox="0 0 1024 1024" version="1.1" xmlns="http://www.w3.org/2000/svg" p-id="1992" xmlns:xlink="http://www.w3.org/1999/xlink" width="200" height="200"><defs><style type="text/css"></style></defs><path d="M896 928 768 928C732.656 928 704 899.344 704 864L704 416C704 380.656 732.656 352 768 352L896 352C931.344 352 960 380.656 960 416L960 864C960 899.344 931.344 928 896 928ZM896 416 768 416 768 864 896 864 896 416ZM576 928 448 928C412.656 928 384 899.344 384 864L384 160C384 124.656 412.656 96 448 96L576 96C611.344 96 640 124.656 640 160L640 864C640 899.344 611.344 928 576 928ZM576 160 448 160 448 864 576 864 576 160ZM256 928 128 928C92.656 928 64 899.344 64 864L64 544C64 508.656 92.656 480 128 480L256 480C291.344 480 320 508.656 320 544L320 864C320 899.344 291.344 928 256 928ZM256 544 128 544 128 864 256 864 256 544Z" p-id="1993"></path></svg>