<?xml version="1.0" standalone="no"?><!DOCTYPE svg PUBLIC "-//W3C//DTD SVG 1.1//EN" "http://www.w3.org/Graphics/SVG/1.1/DTD/svg11.dtd"><svg t="1523793693782" class="icon" style="" viewBox="0 0 1024 1024" version="1.1" xmlns="http://www.w3.org/2000/svg" p-id="2618" xmlns:xlink="http://www.w3.org/1999/xlink" width="200" height="200"><defs><style type="text/css"></style></defs><path d="M850.879104 96.41591l-676.303067 0c-60.681034 0-110.049418 49.367361-110.049418 110.049418l0 446.200388c0 60.681034 49.367361 110.049418 110.049418 110.049418l90.307795 0L396.936381 931.129846c3.793396 4.838192 9.598612 7.66354 15.746636 7.66354s11.952216-2.825348 15.746636-7.66354l132.052548-168.414711 290.396903 0c60.681034 0 110.049418-49.367361 110.049418-110.049418L960.928522 206.465329C960.928522 145.784294 911.561162 96.41591 850.879104 96.41591zM920.91111 652.665717c0 38.614459-31.416524 70.030983-70.030983 70.030983L550.744419 722.6967c-6.147 0-11.952216 2.825348-15.745612 7.66354L412.683017 886.356107l-122.31579-155.995867c-3.792373-4.838192-9.597589-7.66354-15.745612-7.66354l-100.045577 0c-38.614459 0-70.030983-31.416524-70.030983-70.030983L104.545054 206.465329c0-38.614459 31.416524-70.030983 70.030983-70.030983l676.303067 0c38.614459 0 70.030983 31.416524 70.030983 70.030983L920.910087 652.665717z" p-id="2619"></path><path d="M272.621051 344.526731c-44.132126 0-80.035848 35.903721-80.035848 80.035848 0 44.132126 35.903721 80.036871 80.035848 80.036871s80.035848-35.904745 80.035848-80.036871C352.655875 380.430452 316.752154 344.526731 272.621051 344.526731zM272.621051 464.582037c-22.065552 0-40.017412-17.951861-40.017412-40.018436 0-22.065552 17.952884-40.017412 40.017412-40.017412 22.065552 0 40.017412 17.951861 40.017412 40.017412C312.638463 446.629153 294.686602 464.582037 272.621051 464.582037z" p-id="2620"></path><path d="M512.727571 344.526731c-44.132126 0-80.035848 35.903721-80.035848 80.035848 0 44.132126 35.903721 80.036871 80.035848 80.036871 44.132126 0 80.035848-35.904745 80.035848-80.036871C592.763418 380.430452 556.859697 344.526731 512.727571 344.526731zM512.727571 464.582037c-22.065552 0-40.017412-17.951861-40.017412-40.018436 0-22.065552 17.951861-40.017412 40.017412-40.017412 22.065552 0 40.017412 17.951861 40.017412 40.017412C552.746006 446.629153 534.793122 464.582037 512.727571 464.582037z" p-id="2621"></path><path d="M752.836137 344.526731c-44.131103 0-80.035848 35.903721-80.035848 80.035848 0 44.132126 35.904745 80.036871 80.035848 80.036871s80.035848-35.904745 80.035848-80.036871C832.871985 380.430452 796.96724 344.526731 752.836137 344.526731zM752.836137 464.582037c-22.066575 0-40.017412-17.951861-40.017412-40.018436 0-22.065552 17.951861-40.017412 40.017412-40.017412s40.017412 17.951861 40.017412 40.017412C792.853549 446.629153 774.902712 464.582037 752.836137 464.582037z" p-id="2622"></path></svg>