<?xml version="1.0" standalone="no"?><!DOCTYPE svg PUBLIC "-//W3C//DTD SVG 1.1//EN" "http://www.w3.org/Graphics/SVG/1.1/DTD/svg11.dtd"><svg t="1540532996442" class="icon" style="" viewBox="0 0 1024 1024" version="1.1" xmlns="http://www.w3.org/2000/svg" p-id="6189" xmlns:xlink="http://www.w3.org/1999/xlink" width="32" height="32"><defs><style type="text/css"></style></defs><path d="M228.413712 351.302041l565.792137 0 0-51.436486L228.413712 299.865555 228.413712 351.302041zM228.413712 531.351744l565.792137 0 0-51.461045L228.413712 479.890698 228.413712 531.351744zM897.077797 119.841436 125.543809 119.841436c-28.404933 0-51.435463 23.056112-51.435463 51.435463l0 668.664086c0 28.431539 23.030529 51.435463 51.435463 51.435463l771.535011 0c28.405957 0 51.435463-23.0029 51.435463-51.435463L948.514283 171.276898C948.51326 142.897547 925.483754 119.841436 897.077797 119.841436zM897.077797 814.222229c0 14.216793-11.528568 25.718755-25.717731 25.718755L151.261541 839.940984c-14.216793 0-25.717731-11.501962-25.717731-25.718755L125.543809 196.995653c0-14.189164 11.501962-25.717731 25.717731-25.717731l720.099549 0c14.189164 0 25.717731 11.528568 25.717731 25.717731L897.078821 814.222229zM228.413712 711.351304l565.792137 0 0-51.435463L228.413712 659.915841 228.413712 711.351304z" p-id="6190"></path></svg>