<?xml version="1.0" standalone="no"?><!DOCTYPE svg PUBLIC "-//W3C//DTD SVG 1.1//EN" "http://www.w3.org/Graphics/SVG/1.1/DTD/svg11.dtd"><svg t="1525499385323" class="icon" style="" viewBox="0 0 1024 1024" version="1.1" xmlns="http://www.w3.org/2000/svg" p-id="4161" xmlns:xlink="http://www.w3.org/1999/xlink" width="200" height="200"><defs><style type="text/css"></style></defs><path d="M993.889598 704.576038l-41.044193 12.788439c1.179981 8.865801 2.455635 17.508362 2.455636 26.661186 0 9.057149-1.435112 17.859167-2.806441 26.533619l41.394998 12.884114c9.694976 2.806441 17.859167 9.376063 22.57909 18.241864 4.688031 8.865801 5.644772 19.262387 2.423745 28.829798-6.665296 19.708867-28.574668 30.360584-49.080819 24.046093l-41.873369-12.979788a207.389579 207.389579 0 0 1-32.178392 43.27659l25.544987 33.741069a36.388053 36.388053 0 0 1-8.61067 52.174281 39.896104 39.896104 0 0 1-54.438568-8.227973l-25.672553-33.900526a218.009405 218.009405 0 0 1-52.748326 17.093774v41.139867c0 20.601825-17.476471 37.408577-38.939363 37.408577-21.558566 0-39.003146-16.711078-39.003145-37.408577v-41.139867a217.818057 217.818057 0 0 1-52.780218-17.093774l-25.60877 33.900526a40.183126 40.183126 0 0 1-54.47046 8.227973 36.164814 36.164814 0 0 1-8.578778-52.174281l25.800118-34.059983a201.138871 201.138871 0 0 1-33.29459-42.702545l-40.916628 12.78844c-20.601825 6.442057-42.511196-4.337226-49.11271-24.046093a36.930206 36.930206 0 0 1 24.970943-47.071662l41.076084-12.724657c-1.148089-8.833909-2.519418-17.604036-2.519418-26.693077 0-9.184715 1.498894-17.859167 2.838332-26.661185l-41.42689-12.820331c-20.569934-6.442057-31.66813-27.490361-24.970942-47.135445 6.601514-19.613193 28.510885-30.296802 49.112709-24.014201l41.841478 13.04357a211.057087 211.057087 0 0 1 32.178392-43.372263l-25.513096-33.645396a36.451836 36.451836 0 0 1 8.578779-52.206172 39.959887 39.959887 0 0 1 54.47046 8.291756l25.640661 33.900526a214.469463 214.469463 0 0 1 52.748326-17.125665v-41.139868c0-20.633716 17.412688-37.408577 39.003146-37.408577 21.494783 0 38.971254 16.647295 38.971254 37.408577v41.076085a216.733751 216.733751 0 0 1 52.716435 17.157557l25.672553-33.932418a40.119343 40.119343 0 0 1 54.438568-8.291756c17.348905 12.182503 21.271544 35.495095 8.642561 52.238064l-25.832009 34.028092c12.724657 12.916005 24.365007 26.980099 33.358373 42.60687l40.884736-12.660874c20.538042-6.314491 42.415522 4.401009 49.080819 24.077985 6.76097 19.613193-4.528575 40.661497-25.002835 47.071662z m-252.898564-91.273101c-75.327416 0-136.463172 58.616338-136.463172 130.8184 0 72.265844 61.135756 130.754617 136.463172 130.754617 75.231742 0 136.39939-58.488773 136.39939-130.754617 0-72.202062-61.071974-130.8184-136.39939-130.8184z" p-id="4162"></path><path d="M441.690527 895.669127H99.528018a49.750537 49.750537 0 0 1-49.782429-49.782429V99.596749c0-27.45847 22.292068-49.782429 49.782429-49.782429h447.818617v223.909309a99.532966 99.532966 0 0 0 99.532966 99.532966h199.002149v36.451836a322.102837 322.102837 0 0 1 49.782429 32.018935V348.381326l-8.802018-8.770127 1.530785-8.802018-307.05011-330.713507H99.559909A99.532966 99.532966 0 0 0 0.026943 99.62864v746.321841a99.532966 99.532966 0 0 0 99.532966 99.532966h390.446043a322.963904 322.963904 0 0 1-48.315425-49.81432z" p-id="4163"></path><path d="M597.129064 91.145536l217.818057 232.32863h-168.06752a49.750537 49.750537 0 0 1-49.782428-49.750537V91.145536h0.031891zM174.185715 423.007132h248.784577v-49.750537H174.185715v49.750537zM422.970292 223.9412H174.185715v49.782429h248.784577V223.9412zM174.185715 744.057554h248.784577v-49.750537H174.185715v49.750537zM514.115828 545.023514H174.185715v49.750537h339.930113v-49.750537z" p-id="4164"></path></svg>