<?xml version="1.0" standalone="no"?><!DOCTYPE svg PUBLIC "-//W3C//DTD SVG 1.1//EN" "http://www.w3.org/Graphics/SVG/1.1/DTD/svg11.dtd"><svg t="1523793646685" class="icon" style="" viewBox="0 0 1024 1024" version="1.1" xmlns="http://www.w3.org/2000/svg" p-id="1986" xmlns:xlink="http://www.w3.org/1999/xlink" width="200" height="200"><defs><style type="text/css"></style></defs><path d="M512.693802 923.653571c-0.002047 0-0.00307 0-0.005117 0-5.334495 0-10.44591-1.889023-14.201443-5.676279L371.4755 790.006711c-1.623987-1.632173-165.076686-165.854399-188.502212-189.280948C113.996311 531.748786 73.487711 454.399117 65.827241 376.98191c-7.621585-77.016071 19.012006-150.243863 74.992995-206.225875 54.854329-54.853305 121.683387-77.840856 193.253422-66.48318 59.696614 9.471722 121.131825 42.556235 178.620144 96.012727 57.488319-53.456492 118.92353-86.535889 178.620144-96.007611 71.573105-11.350512 138.399093 11.639085 193.253422 66.49239 55.980989 55.980989 82.613556 129.225153 74.992995 206.241224-7.66047 77.417207-48.169069 154.797575-117.146047 223.775576-51.150984 51.14996-312.884057 314.541813-315.52214 317.199339C523.137665 921.770687 518.02625 923.653571 512.693802 923.653571z" p-id="1987"></path></svg>