<?xml version="1.0" standalone="no"?><!DOCTYPE svg PUBLIC "-//W3C//DTD SVG 1.1//EN" "http://www.w3.org/Graphics/SVG/1.1/DTD/svg11.dtd"><svg t="1523793755611" class="icon" style="" viewBox="0 0 1024 1024" version="1.1" xmlns="http://www.w3.org/2000/svg" p-id="3511" xmlns:xlink="http://www.w3.org/1999/xlink" width="200" height="200"><defs><style type="text/css"></style></defs><path d="M954.382433 263.833921l-82.627882-98.120738c-3.925403-4.66116-9.707083-7.351432-15.801894-7.351432L577.082274 158.361751 577.082274 87.082334c0-11.408841-9.248641-20.657482-20.657482-20.657482l-86.759993 0c-11.408841 0-20.657482 9.248641-20.657482 20.657482L449.007317 271.967158 171.158195 271.967158c-6.327102 0-12.305257 2.90005-16.223496 7.868201L70.252017 387.261021c-5.91164 7.500834-5.91164 18.076704 0 25.577538l84.682681 107.423615c3.917216 4.970198 9.895371 7.869225 16.223496 7.869225l277.850146 0 0 299.32218-135.281079 0c-11.408841 0-20.657482 9.248641-20.657482 20.657482l0 86.759993c0 11.408841 9.248641 20.657482 20.657482 20.657482l396.616086 0c11.408841 0 20.657482-9.248641 20.657482-20.657482l0-86.759993c0-11.408841-9.248641-20.657482-20.657482-20.657482L577.082274 827.453578 577.082274 669.675112l159.40757 0c5.16872 0 10.149151-1.936095 13.959943-5.430686l76.081793-69.744457c4.266164-3.911076 6.697539-9.43693 6.697539-15.226796s-2.430352-11.314697-6.699586-15.226796l-76.081793-69.742411c-3.808746-3.493567-8.789177-5.430686-13.957897-5.430686L577.082274 488.87328l0-92.957135 278.869359 0c6.093788 0 11.875468-2.690272 15.801894-7.351432l82.627882-98.120738C960.855868 282.757922 960.855868 271.523043 954.382433 263.833921zM181.178409 486.817458l-68.399833-86.768179 68.399833-86.769202 267.829931 0 0 173.536358L181.178409 486.816434zM689.686888 914.214595l-355.302145 0 0-45.446052 355.302145 0L689.686888 914.214595zM490.322281 827.454602 490.322281 107.738793l45.446052 0 0 719.715809L490.322281 827.454602zM728.454844 530.189268l53.547567 49.084928-53.547567 49.086975L577.082274 628.361171l0-98.171903L728.454844 530.189268zM846.341764 354.60425 577.082274 354.60425l0-154.928558 269.25949 0 65.233724 77.464279L846.341764 354.60425z" p-id="3512"></path></svg>