<?xml version="1.0" standalone="no"?><!DOCTYPE svg PUBLIC "-//W3C//DTD SVG 1.1//EN" "http://www.w3.org/Graphics/SVG/1.1/DTD/svg11.dtd"><svg t="1523793794156" class="icon" style="" viewBox="0 0 1024 1024" version="1.1" xmlns="http://www.w3.org/2000/svg" p-id="4137" xmlns:xlink="http://www.w3.org/1999/xlink" width="200" height="200"><defs><style type="text/css"></style></defs><path d="M914.7391013 783.78649017l-807.02687634-0.00282656c-21.54153523 0-39.00084656 17.44942036-39.00084655 38.97400023 0 21.5231659 17.45789872 38.97541285 39.00084655 38.97541284l807.02687634 0c21.54012263 0 39.00084656-17.45224693 39.00084656-38.97541284C953.73994786 801.23308533 936.28063653 783.78649017 914.7391013 783.78649017zM914.7391013 471.61156444l-807.02687634 0c-21.54153523 0-39.00084656 17.45224693-39.00084655 38.97541285 0 21.52457851 17.45789872 38.97258627 39.00084655 38.97258628l807.02687634 0c21.54012263 0 39.00084656-17.44518117 39.00084656-38.97258628C953.73994786 489.06239742 936.28063653 471.61156444 914.7391013 471.61156444zM107.71363893 237.38605044l807.02687634 0c21.54012263 0 39.00084656-17.44800775 39.00084656-38.97258626 0-21.52740509-17.45931133-38.97400026-39.00084656-38.97400025L107.71363893 159.43946393c-21.54153523 0-39.00084656 17.44659517-39.00084654 38.97258627C68.71279101 219.93945529 86.17068973 237.38605044 107.71363893 237.38605044z" p-id="4138"></path></svg>