<?xml version="1.0" standalone="no"?><!DOCTYPE svg PUBLIC "-//W3C//DTD SVG 1.1//EN" "http://www.w3.org/Graphics/SVG/1.1/DTD/svg11.dtd"><svg t="1523793764144" class="icon" style="" viewBox="0 0 1024 1024" version="1.1" xmlns="http://www.w3.org/2000/svg" p-id="3637" xmlns:xlink="http://www.w3.org/1999/xlink" width="200" height="200"><defs><style type="text/css"></style></defs><path d="M586.945923 513.581008c55.067176-27.962865 92.91211-85.125773 92.91211-150.998039 0-93.338828-75.937506-169.276335-169.277358-169.276335s-169.275311 75.937506-169.275311 169.276335c0 65.872267 37.844933 123.034151 92.911086 150.998039-95.652524 32.016181-164.778904 122.45496-164.778904 228.743728 0 11.31572 9.17394 20.491707 20.491707 20.491707s20.491707-9.174963 20.491707-20.491707c0-110.36869 89.791026-200.160739 200.160739-200.160739S710.741413 631.956046 710.741413 742.324736c0 11.31572 9.17394 20.491707 20.491707 20.491707s20.491707-9.174963 20.491707-20.491707C751.723803 636.035968 682.598446 545.598212 586.945923 513.581008zM382.287753 362.582969c0-70.742181 57.552787-128.293945 128.292921-128.293945 70.742181 0 128.293945 57.552787 128.293945 128.293945 0 70.741157-57.552787 128.292921-128.293945 128.292921C439.84054 490.876913 382.287753 433.324126 382.287753 362.582969z" p-id="3638"></path><path d="M827.871087 196.127889C743.498468 111.757317 631.320573 65.290005 512 65.290005S280.500509 111.756293 196.128913 196.127889C111.756293 280.501532 65.291029 392.678404 65.291029 511.998977s46.465265 231.499491 130.837884 315.872111 196.550515 130.837884 315.871087 130.837884 231.498468-46.465265 315.871087-130.837884S958.708971 631.319549 958.708971 511.998977 912.243707 280.500509 827.871087 196.127889zM512 917.726581c-223.718271 0-405.726581-182.007287-405.726581-405.727605 0-223.718271 182.00831-405.726581 405.726581-405.726581s405.726581 182.007287 405.726581 405.726581C917.726581 735.719294 735.718271 917.726581 512 917.726581z" p-id="3639"></path></svg>