<?xml version="1.0" standalone="no"?><!DOCTYPE svg PUBLIC "-//W3C//DTD SVG 1.1//EN" "http://www.w3.org/Graphics/SVG/1.1/DTD/svg11.dtd"><svg t="1523793666871" class="icon" style="" viewBox="0 0 1024 1024" version="1.1" xmlns="http://www.w3.org/2000/svg" p-id="2239" xmlns:xlink="http://www.w3.org/1999/xlink" width="200" height="200"><defs><style type="text/css"></style></defs><path d="M958.400956 451.54921c-0.058328-5.760191-2.597151-11.215436-6.965645-14.97097L524.345166 69.511143c-7.498788-6.445806-18.581194-6.445806-26.079982 0L309.582871 231.6755l0-102.017488c0-11.04966-8.901741-19.532869-19.951401-19.532869l-88.034009 0c-11.048637 0-19.928888 8.482185-19.928888 19.532869l0 211.954343L71.176063 436.57824c-4.423753 3.800559-6.967692 9.341762-6.967692 15.173584l0 105.500822c0 7.819083 4.554736 14.921851 11.660574 18.183128 2.670829 1.226944 5.51562 1.824555 8.343015 1.824555 4.699022 0 9.346879-1.654686 13.048177-4.836145l53.29788-45.825698 0 324.100516c0 60.677964 49.364291 110.042255 110.042255 110.042255L764.792447 960.741257c60.677964 0 110.042255-49.364291 110.042255-110.042255L874.834702 527.026228l51.585889 44.335764c5.955642 5.119601 14.356986 6.282077 21.481244 2.965541 7.122211-3.313465 11.645225-10.488889 11.565407-18.342764L958.400956 451.54921zM221.578538 150.034085l48.095391 0 0 115.941616-48.095391 41.336454L221.578538 150.034085zM570.718333 920.725892 436.666244 920.725892 436.666244 700.642404c0-11.031241 8.976442-20.007683 20.007683-20.007683l94.0357 0c11.031241 0 20.007683 8.976442 20.007683 20.007683L570.71731 920.725892zM834.818313 495.895207l0 354.803795c0 38.612413-31.414477 70.02689-70.02689 70.02689l-154.058748 0L610.732675 700.642404c0-33.096792-26.926256-60.023048-60.023048-60.023048l-94.0357 0c-33.096792 0-60.023048 26.926256-60.023048 60.023048l0 220.084511L260.59925 920.726915c-38.612413 0-70.02689-31.414477-70.02689-70.02689L190.57236 495.895207c0-1.172709-0.121773-2.314719-0.315178-3.432169l322.113255-276.958846 322.70268 277.348726C834.921667 493.848595 834.818313 494.858598 834.818313 495.895207zM525.411451 173.947727c-7.502881-6.445806-18.587334-6.446829-26.086122 0.00307L104.223736 513.663896l0-52.726875 407.081439-349.870436 407.176606 349.9523 0.521886 51.205219L525.411451 173.947727z" p-id="2240"></path></svg>