<?xml version="1.0" standalone="no"?><!DOCTYPE svg PUBLIC "-//W3C//DTD SVG 1.1//EN" "http://www.w3.org/Graphics/SVG/1.1/DTD/svg11.dtd"><svg t="1523793786368" class="icon" style="" viewBox="0 0 1024 1024" version="1.1" xmlns="http://www.w3.org/2000/svg" p-id="4016" xmlns:xlink="http://www.w3.org/1999/xlink" width="200" height="200"><defs><style type="text/css"></style></defs><path d="M958.359001 286.941198c0-64.308655-52.132334-116.440989-116.440989-116.440989L181.453678 170.500209c-64.308655 0-116.440989 52.132334-116.440989 116.440989l0 448.63995c0 64.308655 52.132334 116.440989 116.440989 116.440989l660.464333 0c64.308655 0 116.440989-52.132334 116.440989-116.440989L958.359001 286.941198zM843.814198 212.455763c12.059664 0 23.444968 3.465938 33.519418 8.598842L530.749016 549.347606c-1.227967 1.161453-1.156336 0.916882-1.752924 1.868557-1.426489 1.067308-6.055926 3.922333-15.449877 3.922333-9.397021 0-14.025435-2.75474-15.4509-3.818979-0.676405-1.077541-0.662079-0.716314-1.995447-1.940189l-353.122503-324.412624c11.609409-7.557116 25.445532-12.509918 40.300868-12.509918L843.814198 212.456786zM916.403446 736.484727c0 40.857547-31.730679 73.582879-72.589248 73.582879L183.27721 810.067606c-40.85857 0-75.28566-32.725332-75.28566-73.582879L107.99155 287.657512c0-10.630105 2.860141-20.735253 6.909363-29.882588l351.486236 322.096882c4.91187 5.302773 19.479657 17.676591 47.009663 17.676591 27.799136 0 42.303478-12.618389 47.076178-17.830087l346.800517-328.899822c6.251378 10.860349 9.129938 23.433712 9.129938 36.838L916.403446 736.484727z" p-id="4017"></path></svg>