<?xml version="1.0" standalone="no"?><!DOCTYPE svg PUBLIC "-//W3C//DTD SVG 1.1//EN" "http://www.w3.org/Graphics/SVG/1.1/DTD/svg11.dtd"><svg t="1525499185011" class="icon" style="" viewBox="0 0 1024 1024" version="1.1" xmlns="http://www.w3.org/2000/svg" p-id="2162" xmlns:xlink="http://www.w3.org/1999/xlink" width="200" height="200"><defs><style type="text/css"></style></defs><path d="M902.068357 744.573319c0-60.965821-71.69129-136.044101-128.705623-144.511577l77.336273-127.576626L671.753032 472.485116c32.176406-46.288864 53.627343-107.254686 53.627343-174.994487 0-5.080485 0-10.725469 0-15.805954 69.433297-12.418964 114.593164-32.176406 114.593164-51.933848 0-21.450937-50.240353-41.208379-127.012128-53.627343-3.38699-18.063947-55.320838-164.269019-116.286659-164.269019-27.095921 0-48.546858 14.112459-62.659316 35.563396l0 0c0 10.725469-10.725469 21.450937-24.837927 21.450937-12.418964 0-23.144432-9.031974-24.837927-19.757442l0 0C471.920617 27.660419 448.776185 11.289967 421.680265 11.289967 362.407938 11.289967 307.0871 145.640573 294.668137 179.510474 228.62183 191.929438 185.719956 209.993385 185.719956 231.444322s44.595369 39.514884 114.593164 51.933848c0 5.080485 0 10.725469 0 15.805954 0 67.739802 19.757442 128.705623 53.627343 174.994487L174.994487 474.178611l76.771775 125.318633c-57.014333 0-132.092613 78.46527-132.092613 146.76957l1.693495 205.477398c0 33.869901 26.531422 60.965821 60.965821 60.965821l661.027563 0c33.869901 0 60.965821-27.095921 60.965821-60.965821L902.068357 744.573319zM711.267916 176.123484 711.267916 176.123484 711.267916 176.123484 711.267916 176.123484zM464.582139 962.46968l-28.789416 0-53.627343-395.148842 112.335171 98.222712L464.582139 962.46968zM587.642778 962.46968 558.853363 962.46968l-30.482911-296.92613 112.899669-99.916207L587.642778 962.46968zM655.38258 338.699008l0 12.418964-14.112459 0c0 0-9.031974 76.771775-57.014333 76.771775-48.546858 0-57.578831-76.771775-57.578831-76.771775l-32.176406 0c-7.338479 62.659316-39.514884 76.771775-57.014333 76.771775-42.901874 0-55.320838-57.014333-57.014333-76.771775l-14.676957 0L365.794928 338.699008l0-12.418964 107.254686 0L473.049614 338.699008l71.69129 0 0-12.418964 107.254686 0L651.99559 338.699008 655.38258 338.699008z" p-id="2163"></path></svg>