<?xml version="1.0" standalone="no"?><!DOCTYPE svg PUBLIC "-//W3C//DTD SVG 1.1//EN" "http://www.w3.org/Graphics/SVG/1.1/DTD/svg11.dtd"><svg t="1523793748368" class="icon" style="" viewBox="0 0 1024 1024" version="1.1" xmlns="http://www.w3.org/2000/svg" p-id="3385" xmlns:xlink="http://www.w3.org/1999/xlink" width="200" height="200"><defs><style type="text/css"></style></defs><path d="M248.482281 938.000324c-4.306072 0-8.592702-1.336438-12.211113-3.967358-6.395664-4.646833-9.600659-12.521175-8.264221-20.314675l48.430012-282.363949L71.288626 431.382914c-5.66093-5.519714-7.698333-13.772678-5.255701-21.291932 2.444679-7.519254 8.943696-13.000082 16.768919-14.137998l283.508006-41.195238L493.099535 97.853655c3.498684-7.089465 10.720156-11.577686 18.627243-11.577686 7.907087 0 15.127536 4.489244 18.627243 11.577686l126.788661 256.904091 283.510052 41.195238c7.823176 1.137916 14.322194 6.618744 16.766872 14.137998 2.442632 7.519254 0.405229 15.773242-5.255701 21.291932L747.012502 631.354342l48.430012 282.363949c1.336438 7.7935-1.868557 15.667841-8.264221 20.314675-6.399757 4.646833-14.878872 5.257747-21.874193 1.582031L511.726777 802.298666 258.146385 935.614997C255.107165 937.211355 251.789607 938.000324 248.482281 938.000324zM130.422422 431.011454 313.25654 609.228415c4.894474 4.7727 7.128351 11.647271 5.974062 18.385742l-43.163055 251.64532 225.994104-118.811989c6.048763-3.180436 13.282514-3.180436 19.331277 0l225.992057 118.811989-43.163055-251.64532c-1.154289-6.738471 1.079588-13.613042 5.974062-18.385742l182.833095-178.216961-252.665557-36.71418c-6.767124-0.983397-12.614296-5.233188-15.641235-11.362792L511.726777 153.97893 398.729214 382.934482c-3.025916 6.129604-8.874111 10.379395-15.639189 11.362792L130.422422 431.011454z" p-id="3386"></path></svg>