<?xml version="1.0" standalone="no"?><!DOCTYPE svg PUBLIC "-//W3C//DTD SVG 1.1//EN" "http://www.w3.org/Graphics/SVG/1.1/DTD/svg11.dtd"><svg t="1523793677777" class="icon" style="" viewBox="0 0 1024 1024" version="1.1" xmlns="http://www.w3.org/2000/svg" p-id="2365" xmlns:xlink="http://www.w3.org/1999/xlink" width="200" height="200"><defs><style type="text/css"></style></defs><path d="M777.312598 940.007027c-3.184529 0-6.380314-0.759293-9.307993-2.297322L512.694825 803.484677 257.385045 937.708682c-6.741541 3.543709-14.909571 2.952238-21.070898-1.52268-6.161327-4.475941-9.246595-12.062733-7.959276-19.568684l48.759517-284.289812L70.566172 430.990988c-5.453199-5.316076-7.4159-13.268188-5.062296-20.511149 2.353604-7.242961 8.614192-12.521175 16.150842-13.616112l285.444101-41.47767L494.753197 96.730065c3.370771-6.828522 10.326183-11.153014 17.941628-11.153014 7.615445 0 14.570857 4.323469 17.941628 11.153014l127.654378 258.655991 285.444101 41.47767c7.53665 1.094938 13.797237 6.373151 16.150842 13.616112 2.353604 7.242961 0.390903 15.19405-5.062296 20.511149l-206.54924 201.335495 48.759517 284.289812c1.287319 7.505951-1.798972 15.092743-7.959276 19.568684C785.589099 938.717661 781.461081 940.007027 777.312598 940.007027z" p-id="2366"></path></svg>