<?xml version="1.0" standalone="no"?><!DOCTYPE svg PUBLIC "-//W3C//DTD SVG 1.1//EN" "http://www.w3.org/Graphics/SVG/1.1/DTD/svg11.dtd"><svg t="1540516442246" class="icon" style="" viewBox="0 0 1024 1024" version="1.1" xmlns="http://www.w3.org/2000/svg" p-id="6174" xmlns:xlink="http://www.w3.org/1999/xlink" width="32" height="32"><defs><style type="text/css"></style></defs><path d="M891.895263 374.61705 535.727401 374.61705 535.727401 142.422733c0-14.506389-11.806907-26.313296-26.313296-26.313296L132.093481 116.109438c-14.506389 0-26.313296 11.806907-26.313296 26.313296l0 573.73811c0 14.506389 11.806907 26.313296 26.313296 26.313296l102.881159 0 0 35.71748c0 14.506389 11.806907 26.313296 26.313296 26.313296l275.566126 2.491751 36.192294 48.266283L437.087846 855.262948c-14.506389 0-26.28362 11.806907-26.28362 26.313296 0 14.506389 11.777231 26.313296 26.28362 26.313296l273.9053 0c14.506389 0 26.313296-11.806907 26.313296-26.313296 0-14.506389-11.806907-26.313296-26.253944-26.313296l-73.987085-2.462075-36.251645-48.295959 291.081495 0c14.536065 0 26.342971-11.806907 26.342971-26.313296L918.238234 400.870993C918.239258 386.394281 906.432351 374.61705 891.895263 374.61705zM234.974639 400.870993 234.974639 689.905876l-76.538187 0 0-521.169847 324.69301 0 0 205.881021L261.287935 374.61705C246.781546 374.61705 234.974639 386.394281 234.974639 400.870993zM287.63193 751.848647l0-324.633658 335.906399 0-308.999586 324.633658L287.63193 751.848647zM490.843144 751.848647l-101.279684 0 303.659975-321.518714 2.373047-3.114944 89.649809 0L490.843144 751.848647zM865.581967 751.848647 564.413743 751.848647l290.013163-322.854129 4.064572-1.779529 7.090489 0L865.581967 751.848647z" p-id="6175" fill="#8a8a8a"></path><path d="M416.346453 252.363681 240.635569 252.363681c-14.506389 0-26.313296 11.806907-26.313296 26.342971 0 14.506389 11.806907 26.313296 26.313296 26.313296L416.346453 305.019948c14.536065 0 26.342971-11.806907 26.342971-26.313296C442.690448 264.170588 430.882518 252.363681 416.346453 252.363681z" p-id="6176" fill="#8a8a8a"></path></svg>