<?xml version="1.0" standalone="no"?><!DOCTYPE svg PUBLIC "-//W3C//DTD SVG 1.1//EN" "http://www.w3.org/Graphics/SVG/1.1/DTD/svg11.dtd"><svg t="1525499842228" class="icon" style="" viewBox="0 0 1024 1024" version="1.1" xmlns="http://www.w3.org/2000/svg" p-id="6344" xmlns:xlink="http://www.w3.org/1999/xlink" width="200" height="200"><defs><style type="text/css"></style></defs><path d="M522.0608 896h-384V128h682.666667v341.333333a21.333333 21.333333 0 1 0 42.666666 0V106.666667a21.333333 21.333333 0 0 0-21.333333-21.333334h-725.333333a21.333333 21.333333 0 0 0-21.333334 21.333334v810.666666a21.333333 21.333333 0 0 0 21.333334 21.333334h405.333333a21.333333 21.333333 0 1 0 0-42.666667z" p-id="6345"></path><path d="M322.449067 388.906667c-3.950933 3.524267-8.533333 6.365867-13.6192 8.448a41.3696 41.3696 0 0 1-15.633067 3.089066c-8.96 0-17.314133-1.5616-24.840533-4.6336a120.917333 120.917333 0 0 1-21.649067-11.409066c-4.471467-2.884267-8.772267-4.488533-12.7744-4.770134l-0.938667-0.0256c-3.0208 0-7.466667 1.058133-11.52 6.2208-2.7392 3.797333-5.0176 10.146133-0.290133 18.858667 3.4048 6.2976 10.248533 12.014933 21.0176 17.518933 6.792533 3.2768 14.574933 6.0672 23.133867 8.302934 7.8336 2.039467 15.9232 3.072 24.055466 3.072l2.5344-0.034134c11.349333-0.2304 21.998933-2.2272 31.6416-5.9136 9.7024-3.712 18.158933-8.942933 25.130667-15.5648a70.485333 70.485333 0 0 0 16.349867-23.6032 74.837333 74.837333 0 0 0 5.8112-29.499733c0-9.5488-1.348267-18.082133-4.0192-25.361067a58.871467 58.871467 0 0 0-11.784534-19.498666 81.621333 81.621333 0 0 0-18.363733-14.7712 225.681067 225.681067 0 0 0-23.6544-12.1856c-6.5792-2.935467-12.970667-5.879467-19.208533-8.840534a102.656 102.656 0 0 1-15.889067-9.1648 40.251733 40.251733 0 0 1-10.504533-10.8032c-2.525867-3.882667-3.746133-8.482133-3.746134-14.0544 0-9.105067 2.978133-16.3584 9.088-22.1696 6.1696-5.870933 14.301867-8.721067 25.0112-8.721066l1.2544-0.017067a40.874667 40.874667 0 0 1 17.911467 4.206933c6.5792 3.1744 12.125867 6.331733 16.401067 9.3184a24.149333 24.149333 0 0 0 14.190933 4.7616c5.410133 0 9.719467-2.432 12.509867-7.082666 3.259733-5.614933 3.268267-11.6224 0.0256-17.373867-2.858667-5.051733-7.552-9.591467-13.960534-13.499733-6.0928-3.703467-13.4912-6.8352-22.016-9.326934-17.092267-4.992-36.087467-5.0944-52.548266 0.392534a66.551467 66.551467 0 0 0-22.2208 12.398933 61.841067 61.841067 0 0 0-15.573334 20.138667c-3.925333 7.9616-5.905067 16.9216-5.905066 26.632533 0 10.5984 1.7408 19.746133 5.1712 27.204267 3.413333 7.4752 8.328533 13.994667 14.5664 19.3792 6.050133 5.2224 13.312 9.9072 21.572266 13.917866 8.0384 3.908267 16.878933 7.7568 26.1888 11.374934 4.8128 1.9712 9.7792 4.3776 14.737067 7.125333a61.184 61.184 0 0 1 12.919467 9.565867c3.7376 3.6352 6.775467 7.8336 9.045333 12.475733 2.210133 4.514133 3.328 9.685333 3.328 15.36 0 5.691733-1.186133 11.0336-3.5072 15.906133a40.900267 40.900267 0 0 1-9.429333 12.654934zM607.0528 307.089067c0-16.913067-2.235733-33.28-6.647467-48.631467-4.445867-15.4624-11.178667-29.192533-19.985066-40.823467a97.595733 97.595733 0 0 0-33.536-28.0064c-13.405867-6.8864-29.2864-10.368-47.1808-10.368-18.116267 0-34.158933 3.490133-47.6672 10.359467a97.160533 97.160533 0 0 0-33.723734 28.023467c-8.832 11.656533-15.445333 25.412267-19.6608 40.874666a184.465067 184.465067 0 0 0-6.2976 48.571734c0 17.152 2.244267 33.621333 6.656 48.964266 4.445867 15.445333 11.1616 29.175467 19.985067 40.823467a97.066667 97.066667 0 0 0 33.723733 28.023467c13.508267 6.877867 29.320533 10.359467 46.984534 10.359466 14.5664 0 27.7248-2.286933 39.1168-6.784a104.405333 104.405333 0 0 0 28.987733-17.6128l12.168533 11.886934c6.016 6.024533 11.409067 9.1648 16.477867 9.6 5.435733 0.494933 10.094933-1.6128 13.218133-5.6064 5.486933-5.888 9.079467-15.8464-4.8896-29.815467l-14.788266-14.7968a132.48 132.48 0 0 0 12.8768-34.7136 192 192 0 0 0 4.181333-40.328533z m-71.995733 27.767466c-4.053333 0.981333-7.773867 3.140267-11.204267 6.570667-4.48 4.949333-6.596267 9.762133-6.2976 14.301867 0.256 3.84 2.167467 7.287467 5.418667 10.0096l21.128533 21.12a57.5744 57.5744 0 0 1-18.048 10.948266c-7.7824 2.875733-16.648533 4.343467-26.3424 4.343467-12.6208 0-23.552-2.619733-32.520533-7.799467a65.578667 65.578667 0 0 1-22.280534-20.992c-5.870933-8.9088-10.257067-19.1488-13.073066-30.4384a147.5072 147.5072 0 0 1-4.317867-35.822933c0-12.552533 1.450667-24.789333 4.317867-36.360533 2.816-11.400533 7.261867-21.614933 13.218133-30.370134a68.5056 68.5056 0 0 1 22.331733-20.8896c8.8576-5.162667 19.729067-7.790933 32.324267-7.790933 12.373333 0 23.202133 2.628267 32.1792 7.799467a67.456 67.456 0 0 1 22.485333 21.034666c5.947733 8.874667 10.402133 19.208533 13.226667 30.728534 2.858667 11.665067 4.309333 24.072533 4.309333 36.864 0 10.368-0.776533 19.933867-2.312533 28.424533a132.693333 132.693333 0 0 1-5.2992 19.805867l-15.522133-15.7696c-4.036267-4.932267-8.789333-6.920533-13.7216-5.717334zM667.630933 182.673067c-4.898133 0-9.053867 1.442133-12.3392 4.2752-3.473067 3.003733-5.230933 7.2448-5.230933 12.612266v208.213334c0 6.1952 1.988267 11.246933 5.9136 15.010133 3.874133 3.7376 9.2928 5.640533 16.1024 5.640533h85.333333c4.565333 0 8.541867-1.271467 11.8272-3.7888 3.592533-2.773333 5.410133-6.954667 5.410134-12.424533 0-5.6576-1.7408-9.9328-5.154134-12.6976-3.157333-2.56-7.2192-3.857067-12.074666-3.857067h-71.850667v-196.096c-0.008533-10.7264-6.545067-16.887467-17.937067-16.887466zM704.64 605.038933c-54.5792 0-98.978133 44.407467-98.978133 98.9952s44.398933 98.986667 98.978133 98.986667 98.9952-44.398933 98.9952-98.986667-44.407467-98.9952-98.9952-98.9952z m0 155.3152a56.379733 56.379733 0 0 1-56.311467-56.32c0-31.061333 25.258667-56.328533 56.311467-56.328533a56.388267 56.388267 0 0 1 56.328533 56.328533c0 31.0528-25.2672 56.32-56.328533 56.32z" p-id="6346"></path><path d="M927.906133 764.177067a21.2992 21.2992 0 0 0-9.864533-13.0048l-39.714133-23.210667a174.5408 174.5408 0 0 0 0.4608-44.398933l38.8864-23.1424a21.333333 21.333333 0 0 0 7.424-29.243734l-47.650134-80.093866a21.333333 21.333333 0 0 0-29.482666-7.278934l-34.986667 21.469867c-11.972267-8.951467-24.576-15.9488-34.926933-20.9664V507.733333a21.333333 21.333333 0 0 0-21.333334-21.333333h-102.4a21.333333 21.333333 0 0 0-21.333333 21.333333v33.245867c-15.223467 6.024533-26.9056 13.994667-37.794133 23.057067l-31.530667-19.080534a21.316267 21.316267 0 0 0-29.533867 7.620267l-46.250666 80.452267a21.333333 21.333333 0 0 0 7.799466 29.090133l34.670934 20.087467a184.200533 184.200533 0 0 0-1.2544 21.8368c0 9.361067 0.776533 18.7648 2.312533 28.117333l-34.696533 20.676267a21.316267 21.316267 0 0 0-7.415467 29.2352l47.6672 80.085333a21.316267 21.316267 0 0 0 29.7728 7.099733l33.4848-21.2736c9.0624 7.338667 18.901333 14.114133 32.768 19.396267v49.962667a21.333333 21.333333 0 0 0 21.333333 21.333333h102.4a21.333333 21.333333 0 0 0 21.333334-21.333333v-53.384534a203.434667 203.434667 0 0 0 32.256-19.037866l38.9376 23.406933a21.316267 21.316267 0 0 0 29.405866-7.517867l47.0272-80.452266c2.8672-4.8896 3.669333-10.717867 2.2272-16.1792z m-75.170133 56.448l-33.1776-19.9424a21.316267 21.316267 0 0 0-25.1904 2.363733c-11.7504 10.487467-28.305067 20.343467-45.422933 27.0592a21.333333 21.333333 0 0 0-13.550934 19.857067V896h-59.733333v-44.373333a21.333333 21.333333 0 0 0-16.3584-20.744534c-18.807467-4.514133-26.837333-11.3664-40.123733-22.7072l-3.387734-2.884266a21.333333 21.333333 0 0 0-25.233066-1.732267l-28.151467 17.8944-25.5232-42.88 29.474133-17.570133a21.333333 21.333333 0 0 0 9.736534-23.688534 132.181333 132.181333 0 0 1-4.317867-33.271466c0-10.077867 0.964267-19.618133 2.875733-28.356267a21.333333 21.333333 0 0 0-10.146133-23.005867l-29.021867-16.8192 24.772267-43.101866 26.257067 15.880533c8.106667 4.906667 18.4576 3.882667 25.437866-2.5088 15.761067-14.404267 26.845867-23.560533 47.803734-29.064533a21.316267 21.316267 0 0 0 15.914666-20.6336V529.066667h59.733334v29.013333a21.333333 21.333333 0 0 0 13.166933 19.712c19.054933 7.901867 36.565333 18.56 48.017067 29.243733a21.316267 21.316267 0 0 0 25.7024 2.5856l29.568-18.133333 25.685333 43.1872-32.989867 19.6352a21.333333 21.333333 0 0 0-9.984 22.664533 133.290667 133.290667 0 0 1-0.682666 57.053867 21.333333 21.333333 0 0 0 10.018133 23.236267l34.210133 19.9936-25.378133 43.3664z" p-id="6347"></path></svg>