<?xml version="1.0" standalone="no"?><!DOCTYPE svg PUBLIC "-//W3C//DTD SVG 1.1//EN" "http://www.w3.org/Graphics/SVG/1.1/DTD/svg11.dtd"><svg t="1540533078620" class="icon" style="" viewBox="0 0 1024 1024" version="1.1" xmlns="http://www.w3.org/2000/svg" p-id="6320" xmlns:xlink="http://www.w3.org/1999/xlink" width="32" height="32"><defs><style type="text/css"></style></defs><path d="M829.220317 124.424824l-7.074116-10.656711L211.680609 113.768113l-7.141654 9.141194C48.983109 321.498248 70.507332 442.416202 97.154225 496.860185c26.740014 54.537104 80.878029 89.831958 137.977491 89.831958l5.146207 0c72.043826-2.867304 119.953999-38.642089 145.190777-64.548108 22.793122 25.90602 65.699328 60.541865 132.855844 60.541865 70.02382 0 113.703645-37.70167 135.579885-63.877843 30.546713 24.907273 90.183975 65.721841 152.687518 65.721841 40.980343 0 76.085886-16.799618 104.681154-49.907667C1017.364371 411.082566 836.949348 136.066979 829.220317 124.424824zM874.641809 503.603773c-19.22383 22.49841-41.49916 33.236985-68.14503 33.236985-60.246129 0-122.821303-54.56064-136.7792-67.51979L669.717579 305.754682c0.023536-0.458441 0.258896-0.799202 0.258896-1.245364 0-13.252839-10.714016-23.967878-23.920806-23.967878-13.227256 0-23.919782 10.715039-23.919782 23.967878l-0.258896 0 0 177.851641c-13.063527 17.811668-46.172599 52.634778-103.552447 52.634778-64.784492 0-98.525967-44.292785-107.666138-58.367339l0-172.120103c0-13.252839-10.715039-23.967878-23.898293-23.967878-13.228279 0-23.943318 10.715039-23.943318 23.967878l0 171.250292c-11.725042 15.249309-52.070936 60.389392-124.465756 63.37233l-3.219321 0 0-0.047072c-31.933293 0-73.688279-19.585057-95.000678-63.232137-21.358447-43.540655-36.843116-141.948943 94.953605-314.397526l561.097208 0C845.996398 240.173035 940.480306 427.225221 874.641809 503.603773zM831.288418 613.83227c-13.277398 0-24.086581 10.761088-24.13263 24.037463l0 0.045025c0 0.048095 0 0.048095 0 0.095167 0 0 0 0.023536 0 0.059352l0 173.505659c0 26.693965-21.641903 48.312332-48.263214 48.312332L552.089555 859.887268c-0.022513 0-0.022513 0-0.046049 0L264.081049 859.887268c-26.623357 0-48.26526-21.618367-48.26526-48.312332l0-173.634596c-0.023536-13.323447-10.80816-24.108071-24.109094-24.108071-13.299911 0-24.084535 10.784624-24.131607 24.108071l0 178.452321c0 50.730405 41.026392 91.804892 91.664699 91.804892l504.492002 0c50.637284 0 91.662653-41.074487 91.662653-91.804892L855.394443 637.869732C855.325881 624.592334 844.562746 613.83227 831.288418 613.83227z" p-id="6321"></path></svg>