<?xml version="1.0" standalone="no"?><!DOCTYPE svg PUBLIC "-//W3C//DTD SVG 1.1//EN" "http://www.w3.org/Graphics/SVG/1.1/DTD/svg11.dtd"><svg t="1523793636434" class="icon" style="" viewBox="0 0 1024 1024" version="1.1" xmlns="http://www.w3.org/2000/svg" p-id="1860" xmlns:xlink="http://www.w3.org/1999/xlink" width="200" height="200"><defs><style type="text/css"></style></defs><path d="M814.898635 729.554898c-52.181453-15.880689-113.718995-27.296693-179.771363-33.619702 83.378989-122.791627 144.990209-275.473005 144.990209-379.626133 0-144.027278-119.42802-260.733303-266.739087-260.733303-147.317207 0-266.739087 116.706025-266.739087 260.733303 0 102.385878 61.574381 255.895111 145.227616 379.482871-66.636676 6.290263-128.727827 17.752316-181.310416 33.752732-60.22771 18.326391-132.022872 49.885154-132.022872 96.160083 0 89.684602 218.426755 136.608308 434.19496 136.608308 112.413256 0 218.348983-12.394285 298.29478-34.899858 88.904843-25.027 135.898133-60.19701 135.898133-101.707426C946.922531 779.442098 875.128391 747.883335 814.898635 729.554898zM514.324952 181.990914c60.772109 0 110.043279 49.269124 110.043279 110.063745 0 60.753689-49.27117 110.034069-110.043279 110.034069-60.784388 0-110.054535-49.28038-110.054535-110.034069C404.269393 231.260038 453.540563 181.990914 514.324952 181.990914zM883.279025 854.435093c-18.848277 12.544711-47.583738 24.460088-83.099626 34.458813-76.514651 21.538549-178.599677 33.401738-287.450804 33.401738s-210.9382-11.863189-287.451828-33.401738c-35.515888-9.998725-64.250326-21.914102-83.099626-34.458813-15.234983-10.140964-23.626094-20.343327-23.626094-28.729322 0-5.562692 17.591657-31.6877 103.654778-57.875129 56.150858-17.086144 123.93773-28.755927 196.708104-34.169217 24.391527 32.31601 50.161447 61.676711 76.472696 86.332251 4.39203 4.923126 10.781554 8.099469 17.99177 8.099469 7.100722 0 13.407358-3.080152 17.799388-7.869225 26.40744-24.667819 52.311413-54.06229 76.838016-86.449931 72.206532 5.462408 139.457192 17.093307 195.23352 34.06791 86.064145 26.191522 103.655801 52.306296 103.655801 57.865919C906.904095 834.091766 898.514008 844.294129 883.279025 854.435093z" p-id="1861"></path></svg>