<?xml version="1.0" standalone="no"?><!DOCTYPE svg PUBLIC "-//W3C//DTD SVG 1.1//EN" "http://www.w3.org/Graphics/SVG/1.1/DTD/svg11.dtd"><svg t="1523793702040" class="icon" style="" viewBox="0 0 1024 1024" version="1.1" xmlns="http://www.w3.org/2000/svg" p-id="2747" xmlns:xlink="http://www.w3.org/1999/xlink" width="200" height="200"><defs><style type="text/css"></style></defs><path d="M483.882616 483.757772 184.580902 483.757772c-60.681034 0-110.049418-49.367361-110.049418-110.049418L74.531484 184.456059c0-60.681034 49.367361-110.049418 110.049418-110.049418l189.252295 0c60.681034 0 110.049418 49.367361 110.049418 110.049418L483.882616 483.757772zM184.580902 114.424052c-38.614459 0-70.030983 31.416524-70.030983 70.030983l0 189.253318c0 38.614459 31.416524 70.030983 70.030983 70.030983l259.283278 0L443.86418 184.456059c0-38.614459-31.416524-70.030983-70.030983-70.030983L184.580902 114.425076z" p-id="2748"></path><path d="M840.875263 483.757772 539.619034 483.757772 539.619034 184.456059c0-60.681034 49.367361-110.049418 110.049418-110.049418L840.875263 74.40664c60.681034 0 110.049418 49.367361 110.049418 110.049418l0 189.253318C950.924681 434.390411 901.556297 483.757772 840.875263 483.757772zM579.636446 443.74036 840.875263 443.74036c38.614459 0 70.030983-31.416524 70.030983-70.030983L910.906246 184.456059c0-38.614459-31.416524-70.030983-70.030983-70.030983L649.667429 114.425076c-38.615483 0-70.030983 31.416524-70.030983 70.030983L579.636446 443.74036z" p-id="2749"></path><path d="M373.83422 950.798814 184.580902 950.798814c-60.681034 0-110.049418-49.367361-110.049418-110.049418L74.531484 649.541563c0-60.681034 49.367361-110.049418 110.049418-110.049418l299.301713 0 0 301.257252C483.882616 901.43043 434.515255 950.798814 373.83422 950.798814zM184.580902 579.509557c-38.614459 0-70.030983 31.416524-70.030983 70.030983l0 191.208856c0 38.614459 31.416524 70.030983 70.030983 70.030983l189.252295 0c38.614459 0 70.030983-31.416524 70.030983-70.030983l0-261.239839L184.580902 579.509557z" p-id="2750"></path><path d="M840.875263 950.798814 649.667429 950.798814c-60.681034 0-110.049418-49.367361-110.049418-110.049418L539.618011 539.492144 840.875263 539.492144c60.681034 0 110.049418 49.367361 110.049418 110.049418l0 191.208856C950.924681 901.43043 901.556297 950.798814 840.875263 950.798814zM579.636446 579.509557l0 261.239839c0 38.614459 31.4155 70.030983 70.030983 70.030983L840.875263 910.780379c38.614459 0 70.030983-31.416524 70.030983-70.030983L910.906246 649.541563c0-38.614459-31.416524-70.030983-70.030983-70.030983L579.636446 579.51058z" p-id="2751"></path></svg>