<?xml version="1.0" standalone="no"?><!DOCTYPE svg PUBLIC "-//W3C//DTD SVG 1.1//EN" "http://www.w3.org/Graphics/SVG/1.1/DTD/svg11.dtd"><svg t="1525499440059" class="icon" style="" viewBox="0 0 1024 1024" version="1.1" xmlns="http://www.w3.org/2000/svg" p-id="4865" xmlns:xlink="http://www.w3.org/1999/xlink" width="200" height="200"><defs><style type="text/css"></style></defs><path d="M904 238.5L746.2 84.2c-13.1-13.1-31-20-48.9-20H195.8c-53.7 0-97.1 44.1-97.1 97.8v700c0 53.7 43.4 97.8 97.1 97.8h631.7c53.7 0 97.8-44.1 97.8-97.8V288.8c0-18.6-8.2-37.2-21.3-50.3zM856.4 862c0 15.8-13.1 28.9-28.9 28.9H195.8c-15.8 0-28.2-13.1-28.2-28.9V162c0-15.8 12.4-28.9 28.2-28.9l454 0.7v121.9c0 57.2 46.2 103.3 103.3 103.3h103.3v503z m0-571.8H753.1c-19.3 0-34.4-15.2-34.4-34.4v-102l137.8 135v1.4z" p-id="4866"></path><path d="M684 475.2H339.5c-19 0-34.4 15.4-34.4 34.4s15.4 34.4 34.4 34.4H684c19 0 34.4-15.4 34.4-34.4S703 475.2 684 475.2zM684 681.9H339.5c-19 0-34.4 15.4-34.4 34.4s15.4 34.4 34.4 34.4H684c19 0 34.4-15.4 34.4-34.4S703 681.9 684 681.9z" p-id="4867"></path></svg>