<?xml version="1.0" standalone="no"?><!DOCTYPE svg PUBLIC "-//W3C//DTD SVG 1.1//EN" "http://www.w3.org/Graphics/SVG/1.1/DTD/svg11.dtd"><svg t="1541150803210" class="icon" style="" viewBox="0 0 1024 1024" version="1.1" xmlns="http://www.w3.org/2000/svg" p-id="17693" xmlns:xlink="http://www.w3.org/1999/xlink" width="48" height="48"><defs><style type="text/css"></style></defs><path d="M776.704 436.736H291.84c-13.824 0-20.48 6.656-20.48 13.824 0 6.656 6.656 20.48 20.48 20.48h484.864c6.656 0 20.48-6.656 20.48-20.48-7.168-6.656-13.824-13.824-20.48-13.824zM701.44 600.576H359.936c-6.656 0-13.824 6.656-13.824 13.824 0 6.656 6.656 20.48 20.48 20.48h341.504c6.656 0 20.48-6.656 20.48-20.48-6.656-6.656-13.312-13.824-27.136-13.824z" p-id="17694" fill="#8a8a8a"></path><path d="M879.104 252.416H189.44c-47.616 0-81.92 34.304-81.92 75.264v416.256c0 40.96 34.304 81.92 81.92 81.92h225.28l95.744 122.88c6.656 6.656 13.824 13.824 20.48 13.824 6.656 0 20.48-6.656 20.48-13.824l95.744-122.88h225.28c20.48 0 34.304-6.656 54.784-20.48 20.48-13.824 27.136-34.304 27.136-61.44V327.68c-0.512-40.96-34.304-75.264-75.264-75.264z m27.136 498.688c0 6.656-6.656 13.824-6.656 20.48-6.656 0-6.656 6.656-20.48 6.656H640c-6.656 0-20.48 6.656-20.48 13.824l-81.92 116.224-81.92-116.224c-6.656-6.656-13.824-13.824-20.48-13.824H182.784c-13.824 0-27.136-13.824-27.136-27.136v-430.08c0-13.824 13.824-27.136 27.136-27.136H885.76c13.824 0 27.136 13.824 27.136 27.136l-6.656 430.08z" p-id="17695" fill="#8a8a8a"></path></svg>